<svg width="229" height="45" viewBox="0 0 229 45" fill="none" xmlns="http://www.w3.org/2000/svg">
<path d="M29.455 12.6302C30.415 11.8302 31.18 11.1652 31.75 10.6352C32.32 10.0952 32.795 9.53524 33.175 8.95524C33.555 8.37524 33.745 7.80524 33.745 7.24524C33.745 6.73524 33.625 6.33524 33.385 6.04524C33.145 5.75524 32.775 5.61024 32.275 5.61024C31.775 5.61024 31.39 5.78024 31.12 6.12024C30.85 6.45024 30.71 6.90524 30.7 7.48524H28.66C28.7 6.28524 29.055 5.37524 29.725 4.75524C30.405 4.13524 31.265 3.82524 32.305 3.82524C33.445 3.82524 34.32 4.13024 34.93 4.74024C35.54 5.34024 35.845 6.13524 35.845 7.12524C35.845 7.90524 35.635 8.65024 35.215 9.36024C34.795 10.0702 34.315 10.6902 33.775 11.2202C33.235 11.7402 32.53 12.3702 31.66 13.1102H36.085V14.8502H28.675V13.2902L29.455 12.6302ZM44.7583 5.88024H39.8983V8.44524C40.1083 8.18524 40.4083 7.97524 40.7983 7.81524C41.1883 7.64524 41.6033 7.56024 42.0433 7.56024C42.8433 7.56024 43.4983 7.73524 44.0083 8.08524C44.5183 8.43524 44.8883 8.88524 45.1183 9.43524C45.3483 9.97524 45.4633 10.5552 45.4633 11.1752C45.4633 12.3252 45.1333 13.2502 44.4733 13.9502C43.8233 14.6502 42.8933 15.0002 41.6833 15.0002C40.5433 15.0002 39.6333 14.7152 38.9533 14.1452C38.2733 13.5752 37.8883 12.8302 37.7983 11.9102H39.8383C39.9283 12.3102 40.1283 12.6302 40.4383 12.8702C40.7583 13.1102 41.1633 13.2302 41.6533 13.2302C42.2433 13.2302 42.6883 13.0452 42.9883 12.6752C43.2883 12.3052 43.4383 11.8152 43.4383 11.2052C43.4383 10.5852 43.2833 10.1152 42.9733 9.79524C42.6733 9.46524 42.2283 9.30024 41.6383 9.30024C41.2183 9.30024 40.8683 9.40524 40.5883 9.61524C40.3083 9.82524 40.1083 10.1052 39.9883 10.4552H37.9783V4.03524H44.7583V5.88024ZM52.9266 0.795244L48.8766 17.7152H46.8216L50.8716 0.795244H52.9266ZM55.0165 12.6302C55.9765 11.8302 56.7415 11.1652 57.3115 10.6352C57.8815 10.0952 58.3565 9.53524 58.7365 8.95524C59.1165 8.37524 59.3065 7.80524 59.3065 7.24524C59.3065 6.73524 59.1865 6.33524 58.9465 6.04524C58.7065 5.75524 58.3365 5.61024 57.8365 5.61024C57.3365 5.61024 56.9515 5.78024 56.6815 6.12024C56.4115 6.45024 56.2715 6.90524 56.2615 7.48524H54.2215C54.2615 6.28524 54.6165 5.37524 55.2865 4.75524C55.9665 4.13524 56.8265 3.82524 57.8665 3.82524C59.0065 3.82524 59.8815 4.13024 60.4915 4.74024C61.1015 5.34024 61.4065 6.13524 61.4065 7.12524C61.4065 7.90524 61.1965 8.65024 60.7765 9.36024C60.3565 10.0702 59.8765 10.6902 59.3365 11.2202C58.7965 11.7402 58.0915 12.3702 57.2215 13.1102H61.6465V14.8502H54.2365V13.2902L55.0165 12.6302ZM76.189 4.53024L72.349 15.0002H69.799L65.959 4.53024H68.209L71.089 12.8552L73.954 4.53024H76.189ZM81.1381 15.1352C80.3381 15.1352 79.6181 14.9602 78.9781 14.6102C78.3381 14.2502 77.8331 13.7452 77.4631 13.0952C77.1031 12.4452 76.9231 11.6952 76.9231 10.8452C76.9231 9.99524 77.1081 9.24524 77.4781 8.59524C77.8581 7.94524 78.3731 7.44524 79.0231 7.09524C79.6731 6.73524 80.3981 6.55524 81.1981 6.55524C81.9981 6.55524 82.7231 6.73524 83.3731 7.09524C84.0231 7.44524 84.5331 7.94524 84.9031 8.59524C85.2831 9.24524 85.4731 9.99524 85.4731 10.8452C85.4731 11.6952 85.2781 12.4452 84.8881 13.0952C84.5081 13.7452 83.9881 14.2502 83.3281 14.6102C82.6781 14.9602 81.9481 15.1352 81.1381 15.1352ZM81.1381 13.3052C81.5181 13.3052 81.8731 13.2152 82.2031 13.0352C82.5431 12.8452 82.8131 12.5652 83.0131 12.1952C83.2131 11.8252 83.3131 11.3752 83.3131 10.8452C83.3131 10.0552 83.1031 9.45024 82.6831 9.03024C82.2731 8.60024 81.7681 8.38524 81.1681 8.38524C80.5681 8.38524 80.0631 8.60024 79.6531 9.03024C79.2531 9.45024 79.0531 10.0552 79.0531 10.8452C79.0531 11.6352 79.2481 12.2452 79.6381 12.6752C80.0381 13.0952 80.5381 13.3052 81.1381 13.3052ZM91.9335 15.0002L89.1135 11.4602V15.0002H87.0135V3.90024H89.1135V10.2152L91.9035 6.69024H94.6335L90.9735 10.8602L94.6635 15.0002H91.9335ZM98.2183 8.41524V12.4352C98.2183 12.7152 98.2833 12.9202 98.4133 13.0502C98.5533 13.1702 98.7833 13.2302 99.1033 13.2302H100.078V15.0002H98.7583C96.9883 15.0002 96.1033 14.1402 96.1033 12.4202V8.41524H95.1133V6.69024H96.1033V4.63524H98.2183V6.69024H100.078V8.41524H98.2183ZM109.314 10.6652C109.314 10.9652 109.294 11.2352 109.254 11.4752H103.179C103.229 12.0752 103.439 12.5452 103.809 12.8852C104.179 13.2252 104.634 13.3952 105.174 13.3952C105.954 13.3952 106.509 13.0602 106.839 12.3902H109.104C108.864 13.1902 108.404 13.8502 107.724 14.3702C107.044 14.8802 106.209 15.1352 105.219 15.1352C104.419 15.1352 103.699 14.9602 103.059 14.6102C102.429 14.2502 101.934 13.7452 101.574 13.0952C101.224 12.4452 101.049 11.6952 101.049 10.8452C101.049 9.98524 101.224 9.23024 101.574 8.58024C101.924 7.93024 102.414 7.43024 103.044 7.08024C103.674 6.73024 104.399 6.55524 105.219 6.55524C106.009 6.55524 106.714 6.72524 107.334 7.06524C107.964 7.40524 108.449 7.89024 108.789 8.52024C109.139 9.14024 109.314 9.85524 109.314 10.6652ZM107.139 10.0652C107.129 9.52524 106.934 9.09524 106.554 8.77524C106.174 8.44524 105.709 8.28024 105.159 8.28024C104.639 8.28024 104.199 8.44024 103.839 8.76024C103.489 9.07024 103.274 9.50524 103.194 10.0652H107.139ZM118.036 15.1052C117.306 15.1052 116.646 14.9802 116.056 14.7302C115.476 14.4802 115.016 14.1202 114.676 13.6502C114.336 13.1802 114.161 12.6252 114.151 11.9852H116.401C116.431 12.4152 116.581 12.7552 116.851 13.0052C117.131 13.2552 117.511 13.3802 117.991 13.3802C118.481 13.3802 118.866 13.2652 119.146 13.0352C119.426 12.7952 119.566 12.4852 119.566 12.1052C119.566 11.7952 119.471 11.5402 119.281 11.3402C119.091 11.1402 118.851 10.9852 118.561 10.8752C118.281 10.7552 117.891 10.6252 117.391 10.4852C116.711 10.2852 116.156 10.0902 115.726 9.90024C115.306 9.70024 114.941 9.40524 114.631 9.01524C114.331 8.61524 114.181 8.08524 114.181 7.42524C114.181 6.80524 114.336 6.26524 114.646 5.80524C114.956 5.34524 115.391 4.99524 115.951 4.75524C116.511 4.50524 117.151 4.38024 117.871 4.38024C118.951 4.38024 119.826 4.64524 120.496 5.17524C121.176 5.69524 121.551 6.42524 121.621 7.36524H119.311C119.291 7.00524 119.136 6.71024 118.846 6.48024C118.566 6.24024 118.191 6.12024 117.721 6.12024C117.311 6.12024 116.981 6.22524 116.731 6.43524C116.491 6.64524 116.371 6.95024 116.371 7.35024C116.371 7.63024 116.461 7.86524 116.641 8.05524C116.831 8.23524 117.061 8.38524 117.331 8.50524C117.611 8.61524 118.001 8.74524 118.501 8.89524C119.181 9.09524 119.736 9.29524 120.166 9.49524C120.596 9.69524 120.966 9.99524 121.276 10.3952C121.586 10.7952 121.741 11.3202 121.741 11.9702C121.741 12.5302 121.596 13.0502 121.306 13.5302C121.016 14.0102 120.591 14.3952 120.031 14.6852C119.471 14.9652 118.806 15.1052 118.036 15.1052ZM126.006 8.41524V12.4352C126.006 12.7152 126.071 12.9202 126.201 13.0502C126.341 13.1702 126.571 13.2302 126.891 13.2302H127.866V15.0002H126.546C124.776 15.0002 123.891 14.1402 123.891 12.4202V8.41524H122.901V6.69024H123.891V4.63524H126.006V6.69024H127.866V8.41524H126.006ZM131.477 7.98024C131.747 7.54024 132.097 7.19524 132.527 6.94524C132.967 6.69524 133.467 6.57024 134.027 6.57024V8.77524H133.472C132.812 8.77524 132.312 8.93024 131.972 9.24024C131.642 9.55024 131.477 10.0902 131.477 10.8602V15.0002H129.377V6.69024H131.477V7.98024ZM143.166 10.6652C143.166 10.9652 143.146 11.2352 143.106 11.4752H137.031C137.081 12.0752 137.291 12.5452 137.661 12.8852C138.031 13.2252 138.486 13.3952 139.026 13.3952C139.806 13.3952 140.361 13.0602 140.691 12.3902H142.956C142.716 13.1902 142.256 13.8502 141.576 14.3702C140.896 14.8802 140.061 15.1352 139.071 15.1352C138.271 15.1352 137.551 14.9602 136.911 14.6102C136.281 14.2502 135.786 13.7452 135.426 13.0952C135.076 12.4452 134.901 11.6952 134.901 10.8452C134.901 9.98524 135.076 9.23024 135.426 8.58024C135.776 7.93024 136.266 7.43024 136.896 7.08024C137.526 6.73024 138.251 6.55524 139.071 6.55524C139.861 6.55524 140.566 6.72524 141.186 7.06524C141.816 7.40524 142.301 7.89024 142.641 8.52024C142.991 9.14024 143.166 9.85524 143.166 10.6652ZM140.991 10.0652C140.981 9.52524 140.786 9.09524 140.406 8.77524C140.026 8.44524 139.561 8.28024 139.011 8.28024C138.491 8.28024 138.051 8.44024 137.691 8.76024C137.341 9.07024 137.126 9.50524 137.046 10.0652H140.991ZM152.424 10.6652C152.424 10.9652 152.404 11.2352 152.364 11.4752H146.289C146.339 12.0752 146.549 12.5452 146.919 12.8852C147.289 13.2252 147.744 13.3952 148.284 13.3952C149.064 13.3952 149.619 13.0602 149.949 12.3902H152.214C151.974 13.1902 151.514 13.8502 150.834 14.3702C150.154 14.8802 149.319 15.1352 148.329 15.1352C147.529 15.1352 146.809 14.9602 146.169 14.6102C145.539 14.2502 145.044 13.7452 144.684 13.0952C144.334 12.4452 144.159 11.6952 144.159 10.8452C144.159 9.98524 144.334 9.23024 144.684 8.58024C145.034 7.93024 145.524 7.43024 146.154 7.08024C146.784 6.73024 147.509 6.55524 148.329 6.55524C149.119 6.55524 149.824 6.72524 150.444 7.06524C151.074 7.40524 151.559 7.89024 151.899 8.52024C152.249 9.14024 152.424 9.85524 152.424 10.6652ZM150.249 10.0652C150.239 9.52524 150.044 9.09524 149.664 8.77524C149.284 8.44524 148.819 8.28024 148.269 8.28024C147.749 8.28024 147.309 8.44024 146.949 8.76024C146.599 9.07024 146.384 9.50524 146.304 10.0652H150.249ZM156.402 8.41524V12.4352C156.402 12.7152 156.467 12.9202 156.597 13.0502C156.737 13.1702 156.967 13.2302 157.287 13.2302H158.262V15.0002H156.942C155.172 15.0002 154.287 14.1402 154.287 12.4202V8.41524H153.297V6.69024H154.287V4.63524H156.402V6.69024H158.262V8.41524H156.402ZM169.287 9.63024C169.877 9.74024 170.362 10.0352 170.742 10.5152C171.122 10.9952 171.312 11.5452 171.312 12.1652C171.312 12.7252 171.172 13.2202 170.892 13.6502C170.622 14.0702 170.227 14.4002 169.707 14.6402C169.187 14.8802 168.572 15.0002 167.862 15.0002H163.347V4.53024H167.667C168.377 4.53024 168.987 4.64524 169.497 4.87524C170.017 5.10524 170.407 5.42524 170.667 5.83524C170.937 6.24524 171.072 6.71024 171.072 7.23024C171.072 7.84024 170.907 8.35024 170.577 8.76024C170.257 9.17024 169.827 9.46024 169.287 9.63024ZM165.447 8.85024H167.367C167.867 8.85024 168.252 8.74024 168.522 8.52024C168.792 8.29024 168.927 7.96524 168.927 7.54524C168.927 7.12524 168.792 6.80024 168.522 6.57024C168.252 6.34024 167.867 6.22524 167.367 6.22524H165.447V8.85024ZM167.562 13.2902C168.072 13.2902 168.467 13.1702 168.747 12.9302C169.037 12.6902 169.182 12.3502 169.182 11.9102C169.182 11.4602 169.032 11.1102 168.732 10.8602C168.432 10.6002 168.027 10.4702 167.517 10.4702H165.447V13.2902H167.562ZM180.83 6.69024V15.0002H178.715V13.9502C178.445 14.3102 178.09 14.5952 177.65 14.8052C177.22 15.0052 176.75 15.1052 176.24 15.1052C175.59 15.1052 175.015 14.9702 174.515 14.7002C174.015 14.4202 173.62 14.0152 173.33 13.4852C173.05 12.9452 172.91 12.3052 172.91 11.5652V6.69024H175.01V11.2652C175.01 11.9252 175.175 12.4352 175.505 12.7952C175.835 13.1452 176.285 13.3202 176.855 13.3202C177.435 13.3202 177.89 13.1452 178.22 12.7952C178.55 12.4352 178.715 11.9252 178.715 11.2652V6.69024H180.83ZM183.967 5.70024C183.597 5.70024 183.287 5.58524 183.037 5.35524C182.797 5.11524 182.677 4.82024 182.677 4.47024C182.677 4.12024 182.797 3.83024 183.037 3.60024C183.287 3.36024 183.597 3.24024 183.967 3.24024C184.337 3.24024 184.642 3.36024 184.882 3.60024C185.132 3.83024 185.257 4.12024 185.257 4.47024C185.257 4.82024 185.132 5.11524 184.882 5.35524C184.642 5.58524 184.337 5.70024 183.967 5.70024ZM185.002 6.69024V15.0002H182.902V6.69024H185.002ZM189.177 3.90024V15.0002H187.077V3.90024H189.177ZM190.712 10.8152C190.712 9.97524 190.877 9.23024 191.207 8.58024C191.547 7.93024 192.007 7.43024 192.587 7.08024C193.167 6.73024 193.812 6.55524 194.522 6.55524C195.062 6.55524 195.577 6.67524 196.067 6.91524C196.557 7.14524 196.947 7.45524 197.237 7.84524V3.90024H199.367V15.0002H197.237V13.7702C196.977 14.1802 196.612 14.5102 196.142 14.7602C195.672 15.0102 195.127 15.1352 194.507 15.1352C193.807 15.1352 193.167 14.9552 192.587 14.5952C192.007 14.2352 191.547 13.7302 191.207 13.0802C190.877 12.4202 190.712 11.6652 190.712 10.8152ZM197.252 10.8452C197.252 10.3352 197.152 9.90024 196.952 9.54024C196.752 9.17024 196.482 8.89024 196.142 8.70024C195.802 8.50024 195.437 8.40024 195.047 8.40024C194.657 8.40024 194.297 8.49524 193.967 8.68524C193.637 8.87524 193.367 9.15524 193.157 9.52524C192.957 9.88524 192.857 10.3152 192.857 10.8152C192.857 11.3152 192.957 11.7552 193.157 12.1352C193.367 12.5052 193.637 12.7902 193.967 12.9902C194.307 13.1902 194.667 13.2902 195.047 13.2902C195.437 13.2902 195.802 13.1952 196.142 13.0052C196.482 12.8052 196.752 12.5252 196.952 12.1652C197.152 11.7952 197.252 11.3552 197.252 10.8452ZM202.483 5.70024C202.113 5.70024 201.803 5.58524 201.553 5.35524C201.313 5.11524 201.193 4.82024 201.193 4.47024C201.193 4.12024 201.313 3.83024 201.553 3.60024C201.803 3.36024 202.113 3.24024 202.483 3.24024C202.853 3.24024 203.158 3.36024 203.398 3.60024C203.648 3.83024 203.773 4.12024 203.773 4.47024C203.773 4.82024 203.648 5.11524 203.398 5.35524C203.158 5.58524 202.853 5.70024 202.483 5.70024ZM203.518 6.69024V15.0002H201.418V6.69024H203.518ZM210.198 6.57024C211.188 6.57024 211.988 6.88524 212.598 7.51524C213.208 8.13524 213.513 9.00524 213.513 10.1252V15.0002H211.413V10.4102C211.413 9.75024 211.248 9.24524 210.918 8.89524C210.588 8.53524 210.138 8.35524 209.568 8.35524C208.988 8.35524 208.528 8.53524 208.188 8.89524C207.858 9.24524 207.693 9.75024 207.693 10.4102V15.0002H205.593V6.69024H207.693V7.72524C207.973 7.36524 208.328 7.08524 208.758 6.88524C209.198 6.67524 209.678 6.57024 210.198 6.57024ZM218.765 6.55524C219.385 6.55524 219.93 6.68024 220.4 6.93024C220.87 7.17024 221.24 7.48524 221.51 7.87524V6.69024H223.625V15.0602C223.625 15.8302 223.47 16.5152 223.16 17.1152C222.85 17.7252 222.385 18.2052 221.765 18.5552C221.145 18.9152 220.395 19.0952 219.515 19.0952C218.335 19.0952 217.365 18.8202 216.605 18.2702C215.855 17.7202 215.43 16.9702 215.33 16.0202H217.415C217.525 16.4002 217.76 16.7002 218.12 16.9202C218.49 17.1502 218.935 17.2652 219.455 17.2652C220.065 17.2652 220.56 17.0802 220.94 16.7102C221.32 16.3502 221.51 15.8002 221.51 15.0602V13.7702C221.24 14.1602 220.865 14.4852 220.385 14.7452C219.915 15.0052 219.375 15.1352 218.765 15.1352C218.065 15.1352 217.425 14.9552 216.845 14.5952C216.265 14.2352 215.805 13.7302 215.465 13.0802C215.135 12.4202 214.97 11.6652 214.97 10.8152C214.97 9.97524 215.135 9.23024 215.465 8.58024C215.805 7.93024 216.26 7.43024 216.83 7.08024C217.41 6.73024 218.055 6.55524 218.765 6.55524ZM221.51 10.8452C221.51 10.3352 221.41 9.90024 221.21 9.54024C221.01 9.17024 220.74 8.89024 220.4 8.70024C220.06 8.50024 219.695 8.40024 219.305 8.40024C218.915 8.40024 218.555 8.49524 218.225 8.68524C217.895 8.87524 217.625 9.15524 217.415 9.52524C217.215 9.88524 217.115 10.3152 217.115 10.8152C217.115 11.3152 217.215 11.7552 217.415 12.1352C217.625 12.5052 217.895 12.7902 218.225 12.9902C218.565 13.1902 218.925 13.2902 219.305 13.2902C219.695 13.2902 220.06 13.1952 220.4 13.0052C220.74 12.8052 221.01 12.5252 221.21 12.1652C221.41 11.7952 221.51 11.3552 221.51 10.8452ZM40.45 24.5302V35.0002H38.35V28.1902L35.545 35.0002H33.955L31.135 28.1902V35.0002H29.035V24.5302H31.42L34.75 32.3152L38.08 24.5302H40.45ZM50.2512 30.6652C50.2512 30.9652 50.2312 31.2352 50.1912 31.4752H44.1162C44.1662 32.0752 44.3762 32.5452 44.7462 32.8852C45.1162 33.2252 45.5712 33.3952 46.1112 33.3952C46.8912 33.3952 47.4462 33.0602 47.7762 32.3902H50.0412C49.8012 33.1902 49.3412 33.8502 48.6612 34.3702C47.9812 34.8802 47.1462 35.1352 46.1562 35.1352C45.3562 35.1352 44.6362 34.9602 43.9962 34.6102C43.3662 34.2502 42.8712 33.7452 42.5112 33.0952C42.1612 32.4452 41.9862 31.6952 41.9862 30.8452C41.9862 29.9852 42.1612 29.2302 42.5112 28.5802C42.8612 27.9302 43.3512 27.4302 43.9812 27.0802C44.6112 26.7302 45.3362 26.5552 46.1562 26.5552C46.9462 26.5552 47.6512 26.7252 48.2712 27.0652C48.9012 27.4052 49.3862 27.8902 49.7262 28.5202C50.0762 29.1402 50.2512 29.8552 50.2512 30.6652ZM48.0762 30.0652C48.0662 29.5252 47.8712 29.0952 47.4912 28.7752C47.1112 28.4452 46.6462 28.2802 46.0962 28.2802C45.5762 28.2802 45.1362 28.4402 44.7762 28.7602C44.4262 29.0702 44.2112 29.5052 44.1312 30.0652H48.0762ZM53.884 23.9002V35.0002H51.784V23.9002H53.884ZM58.0588 27.9052C58.3288 27.5052 58.6988 27.1802 59.1688 26.9302C59.6488 26.6802 60.1938 26.5552 60.8038 26.5552C61.5138 26.5552 62.1538 26.7302 62.7238 27.0802C63.3038 27.4302 63.7588 27.9302 64.0888 28.5802C64.4288 29.2202 64.5988 29.9652 64.5988 30.8152C64.5988 31.6652 64.4288 32.4202 64.0888 33.0802C63.7588 33.7302 63.3038 34.2352 62.7238 34.5952C62.1538 34.9552 61.5138 35.1352 60.8038 35.1352C60.1838 35.1352 59.6388 35.0152 59.1688 34.7752C58.7088 34.5252 58.3388 34.2052 58.0588 33.8152V35.0002H55.9588V23.9002H58.0588V27.9052ZM62.4538 30.8152C62.4538 30.3152 62.3488 29.8852 62.1388 29.5252C61.9388 29.1552 61.6688 28.8752 61.3288 28.6852C60.9988 28.4952 60.6388 28.4002 60.2488 28.4002C59.8688 28.4002 59.5088 28.5002 59.1688 28.7002C58.8388 28.8902 58.5688 29.1702 58.3588 29.5402C58.1588 29.9102 58.0588 30.3452 58.0588 30.8452C58.0588 31.3452 58.1588 31.7802 58.3588 32.1502C58.5688 32.5202 58.8388 32.8052 59.1688 33.0052C59.5088 33.1952 59.8688 33.2902 60.2488 33.2902C60.6388 33.2902 60.9988 33.1902 61.3288 32.9902C61.6688 32.7902 61.9388 32.5052 62.1388 32.1352C62.3488 31.7652 62.4538 31.3252 62.4538 30.8152ZM69.8148 35.1352C69.0148 35.1352 68.2948 34.9602 67.6548 34.6102C67.0148 34.2502 66.5098 33.7452 66.1398 33.0952C65.7798 32.4452 65.5998 31.6952 65.5998 30.8452C65.5998 29.9952 65.7848 29.2452 66.1548 28.5952C66.5348 27.9452 67.0498 27.4452 67.6998 27.0952C68.3498 26.7352 69.0748 26.5552 69.8748 26.5552C70.6748 26.5552 71.3998 26.7352 72.0498 27.0952C72.6998 27.4452 73.2098 27.9452 73.5798 28.5952C73.9598 29.2452 74.1498 29.9952 74.1498 30.8452C74.1498 31.6952 73.9548 32.4452 73.5648 33.0952C73.1848 33.7452 72.6648 34.2502 72.0048 34.6102C71.3548 34.9602 70.6248 35.1352 69.8148 35.1352ZM69.8148 33.3052C70.1948 33.3052 70.5498 33.2152 70.8798 33.0352C71.2198 32.8452 71.4898 32.5652 71.6898 32.1952C71.8898 31.8252 71.9898 31.3752 71.9898 30.8452C71.9898 30.0552 71.7798 29.4502 71.3598 29.0302C70.9498 28.6002 70.4448 28.3852 69.8448 28.3852C69.2448 28.3852 68.7398 28.6002 68.3298 29.0302C67.9298 29.4502 67.7298 30.0552 67.7298 30.8452C67.7298 31.6352 67.9248 32.2452 68.3148 32.6752C68.7148 33.0952 69.2148 33.3052 69.8148 33.3052ZM77.7903 27.9802C78.0603 27.5402 78.4103 27.1952 78.8403 26.9452C79.2803 26.6952 79.7803 26.5702 80.3403 26.5702V28.7752H79.7853C79.1253 28.7752 78.6253 28.9302 78.2853 29.2402C77.9553 29.5502 77.7903 30.0902 77.7903 30.8602V35.0002H75.6903V26.6902H77.7903V27.9802ZM86.3597 26.5702C87.3497 26.5702 88.1497 26.8852 88.7597 27.5152C89.3697 28.1352 89.6747 29.0052 89.6747 30.1252V35.0002H87.5747V30.4102C87.5747 29.7502 87.4097 29.2452 87.0797 28.8952C86.7497 28.5352 86.2997 28.3552 85.7297 28.3552C85.1497 28.3552 84.6897 28.5352 84.3497 28.8952C84.0197 29.2452 83.8547 29.7502 83.8547 30.4102V35.0002H81.7547V26.6902H83.8547V27.7252C84.1347 27.3652 84.4897 27.0852 84.9197 26.8852C85.3597 26.6752 85.8397 26.5702 86.3597 26.5702ZM94.7359 29.7502C94.7359 28.7202 94.9659 27.8002 95.4259 26.9902C95.8959 26.1702 96.5309 25.5352 97.3309 25.0852C98.1409 24.6252 99.0459 24.3952 100.046 24.3952C101.216 24.3952 102.241 24.6952 103.121 25.2952C104.001 25.8952 104.616 26.7252 104.966 27.7852H102.551C102.311 27.2852 101.971 26.9102 101.531 26.6602C101.101 26.4102 100.601 26.2852 100.031 26.2852C99.4209 26.2852 98.8759 26.4302 98.3959 26.7202C97.9259 27.0002 97.5559 27.4002 97.2859 27.9202C97.0259 28.4402 96.8959 29.0502 96.8959 29.7502C96.8959 30.4402 97.0259 31.0502 97.2859 31.5802C97.5559 32.1002 97.9259 32.5052 98.3959 32.7952C98.8759 33.0752 99.4209 33.2152 100.031 33.2152C100.601 33.2152 101.101 33.0902 101.531 32.8402C101.971 32.5802 102.311 32.2002 102.551 31.7002H104.966C104.616 32.7702 104.001 33.6052 103.121 34.2052C102.251 34.7952 101.226 35.0902 100.046 35.0902C99.0459 35.0902 98.1409 34.8652 97.3309 34.4152C96.5309 33.9552 95.8959 33.3202 95.4259 32.5102C94.9659 31.7002 94.7359 30.7802 94.7359 29.7502ZM107.825 25.7002C107.455 25.7002 107.145 25.5852 106.895 25.3552C106.655 25.1152 106.535 24.8202 106.535 24.4702C106.535 24.1202 106.655 23.8302 106.895 23.6002C107.145 23.3602 107.455 23.2402 107.825 23.2402C108.195 23.2402 108.5 23.3602 108.74 23.6002C108.99 23.8302 109.115 24.1202 109.115 24.4702C109.115 24.8202 108.99 25.1152 108.74 25.3552C108.5 25.5852 108.195 25.7002 107.825 25.7002ZM108.86 26.6902V35.0002H106.76V26.6902H108.86ZM113.379 28.4152V32.4352C113.379 32.7152 113.444 32.9202 113.574 33.0502C113.714 33.1702 113.944 33.2302 114.264 33.2302H115.239V35.0002H113.919C112.149 35.0002 111.264 34.1402 111.264 32.4202V28.4152H110.274V26.6902H111.264V24.6352H113.379V26.6902H115.239V28.4152H113.379ZM124.7 26.6902L119.555 38.9302H117.32L119.12 34.7902L115.79 26.6902H118.145L120.29 32.4952L122.465 26.6902H124.7Z" fill="white"/>
<path d="M7 5.00024C3.13 5.00024 0 8.13024 0 12.0002C0 17.2502 7 25.0002 7 25.0002C7 25.0002 14 17.2502 14 12.0002C14 8.13024 10.87 5.00024 7 5.00024ZM7 14.5002C6.33696 14.5002 5.70107 14.2369 5.23223 13.768C4.76339 13.2992 4.5 12.6633 4.5 12.0002C4.5 11.3372 4.76339 10.7013 5.23223 10.2325C5.70107 9.76364 6.33696 9.50024 7 9.50024C7.66304 9.50024 8.29893 9.76364 8.76777 10.2325C9.23661 10.7013 9.5 11.3372 9.5 12.0002C9.5 12.6633 9.23661 13.2992 8.76777 13.768C8.29893 14.2369 7.66304 14.5002 7 14.5002Z" fill="white"/>
</svg>
