<svg width="199" height="33" viewBox="0 0 199 33" fill="none" xmlns="http://www.w3.org/2000/svg">
<path d="M17.4873 15.9549L13.4223 12.2589C13.2301 12.0843 12.9776 11.9911 12.7181 11.9992C12.4585 12.0072 12.2123 12.1158 12.0313 12.3019L9.63828 14.7629C9.06228 14.6529 7.90428 14.2919 6.71228 13.1029C5.52028 11.9099 5.15928 10.7489 5.05228 10.1769L7.51128 7.78294C7.69769 7.60206 7.80642 7.35576 7.81444 7.09614C7.82247 6.83653 7.72917 6.58398 7.55428 6.39194L3.85928 2.32794C3.68432 2.13529 3.44116 2.01844 3.18143 2.0022C2.92171 1.98595 2.66588 2.07159 2.46828 2.24094L0.298282 4.10194C0.125393 4.27545 0.0222015 4.50639 0.00828196 4.75094C-0.00671804 5.00094 -0.292718 10.9229 4.29928 15.5169C8.30528 19.5219 13.3233 19.8149 14.7053 19.8149C14.9073 19.8149 15.0313 19.8089 15.0643 19.8069C15.3088 19.7932 15.5396 19.6896 15.7123 19.5159L17.5723 17.3449C17.7423 17.148 17.8286 16.8923 17.8127 16.6326C17.7968 16.3729 17.68 16.1297 17.4873 15.9549Z" fill="white"/>
<path d="M34.625 6.21024C33.625 5.69024 33.125 4.88524 33.125 3.79524C33.125 3.25524 33.26 2.76524 33.53 2.32524C33.81 1.87524 34.225 1.52024 34.775 1.26024C35.335 0.990244 36.015 0.855244 36.815 0.855244C37.615 0.855244 38.29 0.990244 38.84 1.26024C39.4 1.52024 39.815 1.87524 40.085 2.32524C40.365 2.76524 40.505 3.25524 40.505 3.79524C40.505 4.34524 40.37 4.83024 40.1 5.25024C39.83 5.66024 39.47 5.98024 39.02 6.21024C39.57 6.45024 40 6.80024 40.31 7.26024C40.62 7.72024 40.775 8.26524 40.775 8.89524C40.775 9.57524 40.6 10.1702 40.25 10.6802C39.91 11.1802 39.44 11.5652 38.84 11.8352C38.24 12.1052 37.565 12.2402 36.815 12.2402C36.065 12.2402 35.39 12.1052 34.79 11.8352C34.2 11.5652 33.73 11.1802 33.38 10.6802C33.04 10.1702 32.87 9.57524 32.87 8.89524C32.87 8.26524 33.025 7.72024 33.335 7.26024C33.645 6.79024 34.075 6.44024 34.625 6.21024ZM38.465 4.09524C38.465 3.60524 38.315 3.22524 38.015 2.95524C37.725 2.68524 37.325 2.55024 36.815 2.55024C36.315 2.55024 35.915 2.68524 35.615 2.95524C35.325 3.22524 35.18 3.61024 35.18 4.11024C35.18 4.56024 35.33 4.92024 35.63 5.19024C35.94 5.46024 36.335 5.59524 36.815 5.59524C37.295 5.59524 37.69 5.46024 38 5.19024C38.31 4.91024 38.465 4.54524 38.465 4.09524ZM36.815 7.12524C36.245 7.12524 35.78 7.27024 35.42 7.56024C35.07 7.85024 34.895 8.26524 34.895 8.80524C34.895 9.30524 35.065 9.71524 35.405 10.0352C35.755 10.3452 36.225 10.5002 36.815 10.5002C37.405 10.5002 37.87 10.3402 38.21 10.0202C38.55 9.70024 38.72 9.29524 38.72 8.80524C38.72 8.27524 38.545 7.86524 38.195 7.57524C37.845 7.27524 37.385 7.12524 36.815 7.12524ZM44.2637 6.21024C43.2637 5.69024 42.7637 4.88524 42.7637 3.79524C42.7637 3.25524 42.8987 2.76524 43.1687 2.32524C43.4487 1.87524 43.8637 1.52024 44.4137 1.26024C44.9737 0.990244 45.6537 0.855244 46.4537 0.855244C47.2537 0.855244 47.9287 0.990244 48.4787 1.26024C49.0387 1.52024 49.4537 1.87524 49.7237 2.32524C50.0037 2.76524 50.1437 3.25524 50.1437 3.79524C50.1437 4.34524 50.0087 4.83024 49.7387 5.25024C49.4687 5.66024 49.1087 5.98024 48.6587 6.21024C49.2087 6.45024 49.6387 6.80024 49.9487 7.26024C50.2587 7.72024 50.4137 8.26524 50.4137 8.89524C50.4137 9.57524 50.2387 10.1702 49.8887 10.6802C49.5487 11.1802 49.0787 11.5652 48.4787 11.8352C47.8787 12.1052 47.2037 12.2402 46.4537 12.2402C45.7037 12.2402 45.0287 12.1052 44.4287 11.8352C43.8387 11.5652 43.3687 11.1802 43.0187 10.6802C42.6787 10.1702 42.5087 9.57524 42.5087 8.89524C42.5087 8.26524 42.6637 7.72024 42.9737 7.26024C43.2837 6.79024 43.7137 6.44024 44.2637 6.21024ZM48.1037 4.09524C48.1037 3.60524 47.9537 3.22524 47.6537 2.95524C47.3637 2.68524 46.9637 2.55024 46.4537 2.55024C45.9537 2.55024 45.5537 2.68524 45.2537 2.95524C44.9637 3.22524 44.8187 3.61024 44.8187 4.11024C44.8187 4.56024 44.9687 4.92024 45.2687 5.19024C45.5787 5.46024 45.9737 5.59524 46.4537 5.59524C46.9337 5.59524 47.3287 5.46024 47.6387 5.19024C47.9487 4.91024 48.1037 4.54524 48.1037 4.09524ZM46.4537 7.12524C45.8837 7.12524 45.4187 7.27024 45.0587 7.56024C44.7087 7.85024 44.5337 8.26524 44.5337 8.80524C44.5337 9.30524 44.7037 9.71524 45.0437 10.0352C45.3937 10.3452 45.8637 10.5002 46.4537 10.5002C47.0437 10.5002 47.5087 10.3402 47.8487 10.0202C48.1887 9.70024 48.3587 9.29524 48.3587 8.80524C48.3587 8.27524 48.1837 7.86524 47.8337 7.57524C47.4837 7.27524 47.0237 7.12524 46.4537 7.12524ZM51.8173 3.00024V1.06524H55.4323V12.0002H53.2723V3.00024H51.8173ZM57.5369 3.94524C57.5869 2.94524 57.9369 2.17524 58.5869 1.63524C59.2469 1.08524 60.1119 0.810243 61.1819 0.810243C61.9119 0.810243 62.5369 0.940243 63.0569 1.20024C63.5769 1.45024 63.9669 1.79524 64.2269 2.23524C64.4969 2.66524 64.6319 3.15524 64.6319 3.70524C64.6319 4.33524 64.4669 4.87024 64.1369 5.31024C63.8169 5.74024 63.4319 6.03024 62.9819 6.18024V6.24024C63.5619 6.42024 64.0119 6.74024 64.3319 7.20024C64.6619 7.66024 64.8269 8.25024 64.8269 8.97024C64.8269 9.57024 64.6869 10.1052 64.4069 10.5752C64.1369 11.0452 63.7319 11.4152 63.1919 11.6852C62.6619 11.9452 62.0219 12.0752 61.2719 12.0752C60.1419 12.0752 59.2219 11.7902 58.5119 11.2202C57.8019 10.6502 57.4269 9.81024 57.3869 8.70024H59.4269C59.4469 9.19024 59.6119 9.58524 59.9219 9.88524C60.2419 10.1752 60.6769 10.3202 61.2269 10.3202C61.7369 10.3202 62.1269 10.1802 62.3969 9.90024C62.6769 9.61024 62.8169 9.24024 62.8169 8.79024C62.8169 8.19024 62.6269 7.76024 62.2469 7.50024C61.8669 7.24024 61.2769 7.11024 60.4769 7.11024H60.0419V5.38524H60.4769C61.8969 5.38524 62.6069 4.91024 62.6069 3.96024C62.6069 3.53024 62.4769 3.19524 62.2169 2.95524C61.9669 2.71524 61.6019 2.59524 61.1219 2.59524C60.6519 2.59524 60.2869 2.72524 60.0269 2.98524C59.7769 3.23524 59.6319 3.55524 59.5919 3.94524H57.5369ZM66.4864 6.39024C66.4864 4.66024 66.7964 3.30524 67.4164 2.32524C68.0464 1.34524 69.0864 0.855244 70.5364 0.855244C71.9864 0.855244 73.0214 1.34524 73.6414 2.32524C74.2714 3.30524 74.5864 4.66024 74.5864 6.39024C74.5864 8.13024 74.2714 9.49524 73.6414 10.4852C73.0214 11.4752 71.9864 11.9702 70.5364 11.9702C69.0864 11.9702 68.0464 11.4752 67.4164 10.4852C66.7964 9.49524 66.4864 8.13024 66.4864 6.39024ZM72.5164 6.39024C72.5164 5.65024 72.4664 5.03024 72.3664 4.53024C72.2764 4.02024 72.0864 3.60524 71.7964 3.28524C71.5164 2.96524 71.0964 2.80524 70.5364 2.80524C69.9764 2.80524 69.5514 2.96524 69.2614 3.28524C68.9814 3.60524 68.7914 4.02024 68.6914 4.53024C68.6014 5.03024 68.5564 5.65024 68.5564 6.39024C68.5564 7.15024 68.6014 7.79024 68.6914 8.31024C68.7814 8.82024 68.9714 9.23524 69.2614 9.55524C69.5514 9.86524 69.9764 10.0202 70.5364 10.0202C71.0964 10.0202 71.5214 9.86524 71.8114 9.55524C72.1014 9.23524 72.2914 8.82024 72.3814 8.31024C72.4714 7.79024 72.5164 7.15024 72.5164 6.39024ZM82.8137 5.76024V7.53024H76.4537V5.76024H82.8137ZM92.2788 2.88024H87.4188V5.44524C87.6288 5.18524 87.9288 4.97524 88.3188 4.81524C88.7088 4.64524 89.1238 4.56024 89.5638 4.56024C90.3638 4.56024 91.0188 4.73524 91.5288 5.08524C92.0388 5.43524 92.4088 5.88524 92.6388 6.43524C92.8688 6.97524 92.9838 7.55524 92.9838 8.17524C92.9838 9.32524 92.6538 10.2502 91.9938 10.9502C91.3438 11.6502 90.4138 12.0002 89.2038 12.0002C88.0638 12.0002 87.1538 11.7152 86.4738 11.1452C85.7938 10.5752 85.4088 9.83024 85.3188 8.91024H87.3588C87.4488 9.31024 87.6488 9.63024 87.9588 9.87024C88.2788 10.1102 88.6838 10.2302 89.1738 10.2302C89.7638 10.2302 90.2088 10.0452 90.5088 9.67524C90.8088 9.30524 90.9588 8.81524 90.9588 8.20524C90.9588 7.58524 90.8038 7.11524 90.4938 6.79524C90.1938 6.46524 89.7488 6.30024 89.1588 6.30024C88.7388 6.30024 88.3888 6.40524 88.1088 6.61524C87.8288 6.82524 87.6288 7.10524 87.5088 7.45524H85.4988V1.03524H92.2788V2.88024ZM96.4121 6.21024C95.4121 5.69024 94.9121 4.88524 94.9121 3.79524C94.9121 3.25524 95.0471 2.76524 95.3171 2.32524C95.5971 1.87524 96.0121 1.52024 96.5621 1.26024C97.1221 0.990244 97.8021 0.855244 98.6021 0.855244C99.4021 0.855244 100.077 0.990244 100.627 1.26024C101.187 1.52024 101.602 1.87524 101.872 2.32524C102.152 2.76524 102.292 3.25524 102.292 3.79524C102.292 4.34524 102.157 4.83024 101.887 5.25024C101.617 5.66024 101.257 5.98024 100.807 6.21024C101.357 6.45024 101.787 6.80024 102.097 7.26024C102.407 7.72024 102.562 8.26524 102.562 8.89524C102.562 9.57524 102.387 10.1702 102.037 10.6802C101.697 11.1802 101.227 11.5652 100.627 11.8352C100.027 12.1052 99.3521 12.2402 98.6021 12.2402C97.8521 12.2402 97.1771 12.1052 96.5771 11.8352C95.9871 11.5652 95.5171 11.1802 95.1671 10.6802C94.8271 10.1702 94.6571 9.57524 94.6571 8.89524C94.6571 8.26524 94.8121 7.72024 95.1221 7.26024C95.4321 6.79024 95.8621 6.44024 96.4121 6.21024ZM100.252 4.09524C100.252 3.60524 100.102 3.22524 99.8021 2.95524C99.5121 2.68524 99.1121 2.55024 98.6021 2.55024C98.1021 2.55024 97.7021 2.68524 97.4021 2.95524C97.1121 3.22524 96.9671 3.61024 96.9671 4.11024C96.9671 4.56024 97.1171 4.92024 97.4171 5.19024C97.7271 5.46024 98.1221 5.59524 98.6021 5.59524C99.0821 5.59524 99.4771 5.46024 99.7871 5.19024C100.097 4.91024 100.252 4.54524 100.252 4.09524ZM98.6021 7.12524C98.0321 7.12524 97.5671 7.27024 97.2071 7.56024C96.8571 7.85024 96.6821 8.26524 96.6821 8.80524C96.6821 9.30524 96.8521 9.71524 97.1921 10.0352C97.5421 10.3452 98.0121 10.5002 98.6021 10.5002C99.1921 10.5002 99.6571 10.3402 99.9971 10.0202C100.337 9.70024 100.507 9.29524 100.507 8.80524C100.507 8.27524 100.332 7.86524 99.9821 7.57524C99.6321 7.27524 99.1721 7.12524 98.6021 7.12524ZM106.651 8.92524C106.731 9.36524 106.911 9.70524 107.191 9.94524C107.481 10.1752 107.866 10.2902 108.346 10.2902C108.966 10.2902 109.416 10.0352 109.696 9.52524C109.976 9.00524 110.116 8.13524 110.116 6.91524C109.886 7.23524 109.561 7.48524 109.141 7.66524C108.731 7.84524 108.286 7.93524 107.806 7.93524C107.166 7.93524 106.586 7.80524 106.066 7.54524C105.556 7.27524 105.151 6.88024 104.851 6.36024C104.551 5.83024 104.401 5.19024 104.401 4.44024C104.401 3.33024 104.731 2.45024 105.391 1.80024C106.051 1.14024 106.951 0.810243 108.091 0.810243C109.511 0.810243 110.511 1.26524 111.091 2.17524C111.681 3.08524 111.976 4.45524 111.976 6.28524C111.976 7.58524 111.861 8.65024 111.631 9.48024C111.411 10.3102 111.026 10.9402 110.476 11.3702C109.936 11.8002 109.196 12.0152 108.256 12.0152C107.516 12.0152 106.886 11.8752 106.366 11.5952C105.846 11.3052 105.446 10.9302 105.166 10.4702C104.896 10.0002 104.741 9.48524 104.701 8.92524H106.651ZM108.241 6.22524C108.761 6.22524 109.171 6.06524 109.471 5.74524C109.771 5.42524 109.921 4.99524 109.921 4.45524C109.921 3.86524 109.761 3.41024 109.441 3.09024C109.131 2.76024 108.706 2.59524 108.166 2.59524C107.626 2.59524 107.196 2.76524 106.876 3.10524C106.566 3.43524 106.411 3.87524 106.411 4.42524C106.411 4.95524 106.561 5.39024 106.861 5.73024C107.171 6.06024 107.631 6.22524 108.241 6.22524ZM120.24 5.76024V7.53024H113.88V5.76024H120.24ZM129.316 2.65524L125.326 12.0002H123.196L127.216 2.89524H122.086V1.09524H129.316V2.65524ZM130.483 9.87024V8.22024L135.388 1.20024H137.833V8.04024H139.153V9.87024H137.833V12.0002H135.733V9.87024H130.483ZM135.868 3.45024L132.793 8.04024H135.868V3.45024ZM147.84 2.88024H142.98V5.44524C143.19 5.18524 143.49 4.97524 143.88 4.81524C144.27 4.64524 144.685 4.56024 145.125 4.56024C145.925 4.56024 146.58 4.73524 147.09 5.08524C147.6 5.43524 147.97 5.88524 148.2 6.43524C148.43 6.97524 148.545 7.55524 148.545 8.17524C148.545 9.32524 148.215 10.2502 147.555 10.9502C146.905 11.6502 145.975 12.0002 144.765 12.0002C143.625 12.0002 142.715 11.7152 142.035 11.1452C141.355 10.5752 140.97 9.83024 140.88 8.91024H142.92C143.01 9.31024 143.21 9.63024 143.52 9.87024C143.84 10.1102 144.245 10.2302 144.735 10.2302C145.325 10.2302 145.77 10.0452 146.07 9.67524C146.37 9.30524 146.52 8.81524 146.52 8.20524C146.52 7.58524 146.365 7.11524 146.055 6.79524C145.755 6.46524 145.31 6.30024 144.72 6.30024C144.3 6.30024 143.95 6.40524 143.67 6.61524C143.39 6.82524 143.19 7.10524 143.07 7.45524H141.06V1.03524H147.84V2.88024ZM156.774 5.76024V7.53024H150.414V5.76024H156.774ZM164.559 3.79524C164.459 3.37524 164.284 3.06024 164.034 2.85024C163.794 2.64024 163.444 2.53524 162.984 2.53524C162.294 2.53524 161.784 2.81524 161.454 3.37524C161.134 3.92524 160.969 4.82524 160.959 6.07524C161.199 5.67524 161.549 5.36524 162.009 5.14524C162.469 4.91524 162.969 4.80024 163.509 4.80024C164.159 4.80024 164.734 4.94024 165.234 5.22024C165.734 5.50024 166.124 5.91024 166.404 6.45024C166.684 6.98024 166.824 7.62024 166.824 8.37024C166.824 9.08024 166.679 9.71524 166.389 10.2752C166.109 10.8252 165.694 11.2552 165.144 11.5652C164.594 11.8752 163.939 12.0302 163.179 12.0302C162.139 12.0302 161.319 11.8002 160.719 11.3402C160.129 10.8802 159.714 10.2402 159.474 9.42024C159.244 8.59024 159.129 7.57024 159.129 6.36024C159.129 4.53024 159.444 3.15024 160.074 2.22024C160.704 1.28024 161.699 0.810243 163.059 0.810243C164.109 0.810243 164.924 1.09524 165.504 1.66524C166.084 2.23524 166.419 2.94524 166.509 3.79524H164.559ZM163.029 6.52524C162.499 6.52524 162.054 6.68024 161.694 6.99024C161.334 7.30024 161.154 7.75024 161.154 8.34024C161.154 8.93024 161.319 9.39524 161.649 9.73524C161.989 10.0752 162.464 10.2452 163.074 10.2452C163.614 10.2452 164.039 10.0802 164.349 9.75024C164.669 9.42024 164.829 8.97524 164.829 8.41524C164.829 7.83524 164.674 7.37524 164.364 7.03524C164.064 6.69524 163.619 6.52524 163.029 6.52524ZM170.913 8.92524C170.993 9.36524 171.173 9.70524 171.453 9.94524C171.743 10.1752 172.128 10.2902 172.608 10.2902C173.228 10.2902 173.678 10.0352 173.958 9.52524C174.238 9.00524 174.378 8.13524 174.378 6.91524C174.148 7.23524 173.823 7.48524 173.403 7.66524C172.993 7.84524 172.548 7.93524 172.068 7.93524C171.428 7.93524 170.848 7.80524 170.328 7.54524C169.818 7.27524 169.413 6.88024 169.113 6.36024C168.813 5.83024 168.663 5.19024 168.663 4.44024C168.663 3.33024 168.993 2.45024 169.653 1.80024C170.313 1.14024 171.213 0.810243 172.353 0.810243C173.773 0.810243 174.773 1.26524 175.353 2.17524C175.943 3.08524 176.238 4.45524 176.238 6.28524C176.238 7.58524 176.123 8.65024 175.893 9.48024C175.673 10.3102 175.288 10.9402 174.738 11.3702C174.198 11.8002 173.458 12.0152 172.518 12.0152C171.778 12.0152 171.148 11.8752 170.628 11.5952C170.108 11.3052 169.708 10.9302 169.428 10.4702C169.158 10.0002 169.003 9.48524 168.963 8.92524H170.913ZM172.503 6.22524C173.023 6.22524 173.433 6.06524 173.733 5.74524C174.033 5.42524 174.183 4.99524 174.183 4.45524C174.183 3.86524 174.023 3.41024 173.703 3.09024C173.393 2.76024 172.968 2.59524 172.428 2.59524C171.888 2.59524 171.458 2.76524 171.138 3.10524C170.828 3.43524 170.673 3.87524 170.673 4.42524C170.673 4.95524 170.823 5.39024 171.123 5.73024C171.433 6.06024 171.893 6.22524 172.503 6.22524ZM179.703 6.21024C178.703 5.69024 178.203 4.88524 178.203 3.79524C178.203 3.25524 178.338 2.76524 178.608 2.32524C178.888 1.87524 179.303 1.52024 179.853 1.26024C180.413 0.990244 181.093 0.855244 181.893 0.855244C182.693 0.855244 183.368 0.990244 183.918 1.26024C184.478 1.52024 184.893 1.87524 185.163 2.32524C185.443 2.76524 185.583 3.25524 185.583 3.79524C185.583 4.34524 185.448 4.83024 185.178 5.25024C184.908 5.66024 184.548 5.98024 184.098 6.21024C184.648 6.45024 185.078 6.80024 185.388 7.26024C185.698 7.72024 185.853 8.26524 185.853 8.89524C185.853 9.57524 185.678 10.1702 185.328 10.6802C184.988 11.1802 184.518 11.5652 183.918 11.8352C183.318 12.1052 182.643 12.2402 181.893 12.2402C181.143 12.2402 180.468 12.1052 179.868 11.8352C179.278 11.5652 178.808 11.1802 178.458 10.6802C178.118 10.1702 177.948 9.57524 177.948 8.89524C177.948 8.26524 178.103 7.72024 178.413 7.26024C178.723 6.79024 179.153 6.44024 179.703 6.21024ZM183.543 4.09524C183.543 3.60524 183.393 3.22524 183.093 2.95524C182.803 2.68524 182.403 2.55024 181.893 2.55024C181.393 2.55024 180.993 2.68524 180.693 2.95524C180.403 3.22524 180.258 3.61024 180.258 4.11024C180.258 4.56024 180.408 4.92024 180.708 5.19024C181.018 5.46024 181.413 5.59524 181.893 5.59524C182.373 5.59524 182.768 5.46024 183.078 5.19024C183.388 4.91024 183.543 4.54524 183.543 4.09524ZM181.893 7.12524C181.323 7.12524 180.858 7.27024 180.498 7.56024C180.148 7.85024 179.973 8.26524 179.973 8.80524C179.973 9.30524 180.143 9.71524 180.483 10.0352C180.833 10.3452 181.303 10.5002 181.893 10.5002C182.483 10.5002 182.948 10.3402 183.288 10.0202C183.628 9.70024 183.798 9.29524 183.798 8.80524C183.798 8.27524 183.623 7.86524 183.273 7.57524C182.923 7.27524 182.463 7.12524 181.893 7.12524ZM194.472 2.65524L190.482 12.0002H188.352L192.372 2.89524H187.242V1.09524H194.472V2.65524ZM40.88 27.5752H38.045V30.4852H36.065V27.5752H33.23V25.7452H36.065V22.8352H38.045V25.7452H40.88V27.5752ZM42.6474 23.0002V21.0652H46.2624V32.0002H44.1024V23.0002H42.6474ZM54.007 23.7952C53.907 23.3752 53.732 23.0602 53.482 22.8502C53.242 22.6402 52.892 22.5352 52.432 22.5352C51.742 22.5352 51.232 22.8152 50.902 23.3752C50.582 23.9252 50.417 24.8252 50.407 26.0752C50.647 25.6752 50.997 25.3652 51.457 25.1452C51.917 24.9152 52.417 24.8002 52.957 24.8002C53.607 24.8002 54.182 24.9402 54.682 25.2202C55.182 25.5002 55.572 25.9102 55.852 26.4502C56.132 26.9802 56.272 27.6202 56.272 28.3702C56.272 29.0802 56.127 29.7152 55.837 30.2752C55.557 30.8252 55.142 31.2552 54.592 31.5652C54.042 31.8752 53.387 32.0302 52.627 32.0302C51.587 32.0302 50.767 31.8002 50.167 31.3402C49.577 30.8802 49.162 30.2402 48.922 29.4202C48.692 28.5902 48.577 27.5702 48.577 26.3602C48.577 24.5302 48.892 23.1502 49.522 22.2202C50.152 21.2802 51.147 20.8102 52.507 20.8102C53.557 20.8102 54.372 21.0952 54.952 21.6652C55.532 22.2352 55.867 22.9452 55.957 23.7952H54.007ZM52.477 26.5252C51.947 26.5252 51.502 26.6802 51.142 26.9902C50.782 27.3002 50.602 27.7502 50.602 28.3402C50.602 28.9302 50.767 29.3952 51.097 29.7352C51.437 30.0752 51.912 30.2452 52.522 30.2452C53.062 30.2452 53.487 30.0802 53.797 29.7502C54.117 29.4202 54.277 28.9752 54.277 28.4152C54.277 27.8352 54.122 27.3752 53.812 27.0352C53.512 26.6952 53.067 26.5252 52.477 26.5252ZM65.2817 22.8802H60.4217V25.4452C60.6317 25.1852 60.9317 24.9752 61.3217 24.8152C61.7117 24.6452 62.1267 24.5602 62.5667 24.5602C63.3667 24.5602 64.0217 24.7352 64.5317 25.0852C65.0417 25.4352 65.4117 25.8852 65.6417 26.4352C65.8717 26.9752 65.9867 27.5552 65.9867 28.1752C65.9867 29.3252 65.6567 30.2502 64.9967 30.9502C64.3467 31.6502 63.4167 32.0002 62.2067 32.0002C61.0667 32.0002 60.1567 31.7152 59.4767 31.1452C58.7967 30.5752 58.4117 29.8302 58.3217 28.9102H60.3617C60.4517 29.3102 60.6517 29.6302 60.9617 29.8702C61.2817 30.1102 61.6867 30.2302 62.1767 30.2302C62.7667 30.2302 63.2117 30.0452 63.5117 29.6752C63.8117 29.3052 63.9617 28.8152 63.9617 28.2052C63.9617 27.5852 63.8067 27.1152 63.4967 26.7952C63.1967 26.4652 62.7517 26.3002 62.1617 26.3002C61.7417 26.3002 61.3917 26.4052 61.1117 26.6152C60.8317 26.8252 60.6317 27.1052 60.5117 27.4552H58.5017V21.0352H65.2817V22.8802ZM74.935 22.8802H70.075V25.4452C70.285 25.1852 70.585 24.9752 70.975 24.8152C71.365 24.6452 71.78 24.5602 72.22 24.5602C73.02 24.5602 73.675 24.7352 74.185 25.0852C74.695 25.4352 75.065 25.8852 75.295 26.4352C75.525 26.9752 75.64 27.5552 75.64 28.1752C75.64 29.3252 75.31 30.2502 74.65 30.9502C74 31.6502 73.07 32.0002 71.86 32.0002C70.72 32.0002 69.81 31.7152 69.13 31.1452C68.45 30.5752 68.065 29.8302 67.975 28.9102H70.015C70.105 29.3102 70.305 29.6302 70.615 29.8702C70.935 30.1102 71.34 30.2302 71.83 30.2302C72.42 30.2302 72.865 30.0452 73.165 29.6752C73.465 29.3052 73.615 28.8152 73.615 28.2052C73.615 27.5852 73.46 27.1152 73.15 26.7952C72.85 26.4652 72.405 26.3002 71.815 26.3002C71.395 26.3002 71.045 26.4052 70.765 26.6152C70.485 26.8252 70.285 27.1052 70.165 27.4552H68.155V21.0352H74.935V22.8802ZM83.8684 25.7602V27.5302H77.5084V25.7602H83.8684ZM85.8935 29.8702V28.2202L90.7985 21.2002H93.2435V28.0402H94.5635V29.8702H93.2435V32.0002H91.1435V29.8702H85.8935ZM91.2785 23.4502L88.2035 28.0402H91.2785V23.4502ZM103.25 22.8802H98.3905V25.4452C98.6005 25.1852 98.9005 24.9752 99.2905 24.8152C99.6805 24.6452 100.095 24.5602 100.535 24.5602C101.335 24.5602 101.99 24.7352 102.5 25.0852C103.01 25.4352 103.38 25.8852 103.61 26.4352C103.84 26.9752 103.955 27.5552 103.955 28.1752C103.955 29.3252 103.625 30.2502 102.965 30.9502C102.315 31.6502 101.385 32.0002 100.175 32.0002C99.0355 32.0002 98.1255 31.7152 97.4455 31.1452C96.7655 30.5752 96.3805 29.8302 96.2905 28.9102H98.3305C98.4205 29.3102 98.6205 29.6302 98.9305 29.8702C99.2505 30.1102 99.6555 30.2302 100.145 30.2302C100.735 30.2302 101.18 30.0452 101.48 29.6752C101.78 29.3052 101.93 28.8152 101.93 28.2052C101.93 27.5852 101.775 27.1152 101.465 26.7952C101.165 26.4652 100.72 26.3002 100.13 26.3002C99.7105 26.3002 99.3605 26.4052 99.0805 26.6152C98.8005 26.8252 98.6005 27.1052 98.4805 27.4552H96.4705V21.0352H103.25V22.8802ZM111.224 23.7952C111.124 23.3752 110.949 23.0602 110.699 22.8502C110.459 22.6402 110.109 22.5352 109.649 22.5352C108.959 22.5352 108.449 22.8152 108.119 23.3752C107.799 23.9252 107.634 24.8252 107.624 26.0752C107.864 25.6752 108.214 25.3652 108.674 25.1452C109.134 24.9152 109.634 24.8002 110.174 24.8002C110.824 24.8002 111.399 24.9402 111.899 25.2202C112.399 25.5002 112.789 25.9102 113.069 26.4502C113.349 26.9802 113.489 27.6202 113.489 28.3702C113.489 29.0802 113.344 29.7152 113.054 30.2752C112.774 30.8252 112.359 31.2552 111.809 31.5652C111.259 31.8752 110.604 32.0302 109.844 32.0302C108.804 32.0302 107.984 31.8002 107.384 31.3402C106.794 30.8802 106.379 30.2402 106.139 29.4202C105.909 28.5902 105.794 27.5702 105.794 26.3602C105.794 24.5302 106.109 23.1502 106.739 22.2202C107.369 21.2802 108.364 20.8102 109.724 20.8102C110.774 20.8102 111.589 21.0952 112.169 21.6652C112.749 22.2352 113.084 22.9452 113.174 23.7952H111.224ZM109.694 26.5252C109.164 26.5252 108.719 26.6802 108.359 26.9902C107.999 27.3002 107.819 27.7502 107.819 28.3402C107.819 28.9302 107.984 29.3952 108.314 29.7352C108.654 30.0752 109.129 30.2452 109.739 30.2452C110.279 30.2452 110.704 30.0802 111.014 29.7502C111.334 29.4202 111.494 28.9752 111.494 28.4152C111.494 27.8352 111.339 27.3752 111.029 27.0352C110.729 26.6952 110.284 26.5252 109.694 26.5252ZM121.779 25.7602V27.5302H115.419V25.7602H121.779ZM131.244 22.8802H126.384V25.4452C126.594 25.1852 126.894 24.9752 127.284 24.8152C127.674 24.6452 128.089 24.5602 128.529 24.5602C129.329 24.5602 129.984 24.7352 130.494 25.0852C131.004 25.4352 131.374 25.8852 131.604 26.4352C131.834 26.9752 131.949 27.5552 131.949 28.1752C131.949 29.3252 131.619 30.2502 130.959 30.9502C130.309 31.6502 129.379 32.0002 128.169 32.0002C127.029 32.0002 126.119 31.7152 125.439 31.1452C124.759 30.5752 124.374 29.8302 124.284 28.9102H126.324C126.414 29.3102 126.614 29.6302 126.924 29.8702C127.244 30.1102 127.649 30.2302 128.139 30.2302C128.729 30.2302 129.174 30.0452 129.474 29.6752C129.774 29.3052 129.924 28.8152 129.924 28.2052C129.924 27.5852 129.769 27.1152 129.459 26.7952C129.159 26.4652 128.714 26.3002 128.124 26.3002C127.704 26.3002 127.354 26.4052 127.074 26.6152C126.794 26.8252 126.594 27.1052 126.474 27.4552H124.464V21.0352H131.244V22.8802ZM134.207 29.6302C135.167 28.8302 135.932 28.1652 136.502 27.6352C137.072 27.0952 137.547 26.5352 137.927 25.9552C138.307 25.3752 138.497 24.8052 138.497 24.2452C138.497 23.7352 138.377 23.3352 138.137 23.0452C137.897 22.7552 137.527 22.6102 137.027 22.6102C136.527 22.6102 136.142 22.7802 135.872 23.1202C135.602 23.4502 135.462 23.9052 135.452 24.4852H133.412C133.452 23.2852 133.807 22.3752 134.477 21.7552C135.157 21.1352 136.017 20.8252 137.057 20.8252C138.197 20.8252 139.072 21.1302 139.682 21.7402C140.292 22.3402 140.597 23.1352 140.597 24.1252C140.597 24.9052 140.387 25.6502 139.967 26.3602C139.547 27.0702 139.067 27.6902 138.527 28.2202C137.987 28.7402 137.282 29.3702 136.412 30.1102H140.837V31.8502H133.427V30.2902L134.207 29.6302ZM142.19 23.9452C142.24 22.9452 142.59 22.1752 143.24 21.6352C143.9 21.0852 144.765 20.8102 145.835 20.8102C146.565 20.8102 147.19 20.9402 147.71 21.2002C148.23 21.4502 148.62 21.7952 148.88 22.2352C149.15 22.6652 149.285 23.1552 149.285 23.7052C149.285 24.3352 149.12 24.8702 148.79 25.3102C148.47 25.7402 148.085 26.0302 147.635 26.1802V26.2402C148.215 26.4202 148.665 26.7402 148.985 27.2002C149.315 27.6602 149.48 28.2502 149.48 28.9702C149.48 29.5702 149.34 30.1052 149.06 30.5752C148.79 31.0452 148.385 31.4152 147.845 31.6852C147.315 31.9452 146.675 32.0752 145.925 32.0752C144.795 32.0752 143.875 31.7902 143.165 31.2202C142.455 30.6502 142.08 29.8102 142.04 28.7002H144.08C144.1 29.1902 144.265 29.5852 144.575 29.8852C144.895 30.1752 145.33 30.3202 145.88 30.3202C146.39 30.3202 146.78 30.1802 147.05 29.9002C147.33 29.6102 147.47 29.2402 147.47 28.7902C147.47 28.1902 147.28 27.7602 146.9 27.5002C146.52 27.2402 145.93 27.1102 145.13 27.1102H144.695V25.3852H145.13C146.55 25.3852 147.26 24.9102 147.26 23.9602C147.26 23.5302 147.13 23.1952 146.87 22.9552C146.62 22.7152 146.255 22.5952 145.775 22.5952C145.305 22.5952 144.94 22.7252 144.68 22.9852C144.43 23.2352 144.285 23.5552 144.245 23.9452H142.19Z" fill="white"/>
</svg>
