<svg width="214" height="40" viewBox="0 0 214 40" fill="none" xmlns="http://www.w3.org/2000/svg">
<path d="M46.45 4.53024V15.0002H44.35V8.19024L41.545 15.0002H39.955L37.135 8.19024V15.0002H35.035V4.53024H37.42L40.75 12.3152L44.08 4.53024H46.45ZM52.2162 15.1352C51.4162 15.1352 50.6962 14.9602 50.0562 14.6102C49.4162 14.2502 48.9112 13.7452 48.5412 13.0952C48.1812 12.4452 48.0012 11.6952 48.0012 10.8452C48.0012 9.99524 48.1862 9.24524 48.5562 8.59524C48.9362 7.94524 49.4512 7.44524 50.1012 7.09524C50.7512 6.73524 51.4762 6.55524 52.2762 6.55524C53.0762 6.55524 53.8012 6.73524 54.4512 7.09524C55.1012 7.44524 55.6112 7.94524 55.9812 8.59524C56.3612 9.24524 56.5512 9.99524 56.5512 10.8452C56.5512 11.6952 56.3562 12.4452 55.9662 13.0952C55.5862 13.7452 55.0662 14.2502 54.4062 14.6102C53.7562 14.9602 53.0262 15.1352 52.2162 15.1352ZM52.2162 13.3052C52.5962 13.3052 52.9512 13.2152 53.2812 13.0352C53.6212 12.8452 53.8912 12.5652 54.0912 12.1952C54.2912 11.8252 54.3912 11.3752 54.3912 10.8452C54.3912 10.0552 54.1812 9.45024 53.7612 9.03024C53.3512 8.60024 52.8462 8.38524 52.2462 8.38524C51.6462 8.38524 51.1412 8.60024 50.7312 9.03024C50.3312 9.45024 50.1312 10.0552 50.1312 10.8452C50.1312 11.6352 50.3262 12.2452 50.7162 12.6752C51.1162 13.0952 51.6162 13.3052 52.2162 13.3052ZM62.6966 6.57024C63.6866 6.57024 64.4866 6.88524 65.0966 7.51524C65.7066 8.13524 66.0116 9.00524 66.0116 10.1252V15.0002H63.9116V10.4102C63.9116 9.75024 63.7466 9.24524 63.4166 8.89524C63.0866 8.53524 62.6366 8.35524 62.0666 8.35524C61.4866 8.35524 61.0266 8.53524 60.6866 8.89524C60.3566 9.24524 60.1916 9.75024 60.1916 10.4102V15.0002H58.0916V6.69024H60.1916V7.72524C60.4716 7.36524 60.8266 7.08524 61.2566 6.88524C61.6966 6.67524 62.1766 6.57024 62.6966 6.57024ZM74.3986 8.76024V10.5302H68.0386V8.76024H74.3986ZM83.2188 4.53024V6.22524H78.8538V8.91024H82.1988V10.5752H78.8538V15.0002H76.7538V4.53024H83.2188ZM86.8079 7.98024C87.0779 7.54024 87.4279 7.19524 87.8579 6.94524C88.2979 6.69524 88.7979 6.57024 89.3579 6.57024V8.77524H88.8029C88.1429 8.77524 87.6429 8.93024 87.3029 9.24024C86.9729 9.55024 86.8079 10.0902 86.8079 10.8602V15.0002H84.7079V6.69024H86.8079V7.98024ZM91.8373 5.70024C91.4673 5.70024 91.1573 5.58524 90.9073 5.35524C90.6673 5.11524 90.5473 4.82024 90.5473 4.47024C90.5473 4.12024 90.6673 3.83024 90.9073 3.60024C91.1573 3.36024 91.4673 3.24024 91.8373 3.24024C92.2073 3.24024 92.5123 3.36024 92.7523 3.60024C93.0023 3.83024 93.1273 4.12024 93.1273 4.47024C93.1273 4.82024 93.0023 5.11524 92.7523 5.35524C92.5123 5.58524 92.2073 5.70024 91.8373 5.70024ZM92.8723 6.69024V15.0002H90.7723V6.69024H92.8723ZM98.2813 9.39024C98.2813 7.66024 98.5913 6.30524 99.2113 5.32524C99.8413 4.34524 100.881 3.85524 102.331 3.85524C103.781 3.85524 104.816 4.34524 105.436 5.32524C106.066 6.30524 106.381 7.66024 106.381 9.39024C106.381 11.1302 106.066 12.4952 105.436 13.4852C104.816 14.4752 103.781 14.9702 102.331 14.9702C100.881 14.9702 99.8413 14.4752 99.2113 13.4852C98.5913 12.4952 98.2813 11.1302 98.2813 9.39024ZM104.311 9.39024C104.311 8.65024 104.261 8.03024 104.161 7.53024C104.071 7.02024 103.881 6.60524 103.591 6.28524C103.311 5.96524 102.891 5.80524 102.331 5.80524C101.771 5.80524 101.346 5.96524 101.056 6.28524C100.776 6.60524 100.586 7.02024 100.486 7.53024C100.396 8.03024 100.351 8.65024 100.351 9.39024C100.351 10.1502 100.396 10.7902 100.486 11.3102C100.576 11.8202 100.766 12.2352 101.056 12.5552C101.346 12.8652 101.771 13.0202 102.331 13.0202C102.891 13.0202 103.316 12.8652 103.606 12.5552C103.896 12.2352 104.086 11.8202 104.176 11.3102C104.266 10.7902 104.311 10.1502 104.311 9.39024ZM110.409 11.9252C110.489 12.3652 110.669 12.7052 110.949 12.9452C111.239 13.1752 111.624 13.2902 112.104 13.2902C112.724 13.2902 113.174 13.0352 113.454 12.5252C113.734 12.0052 113.874 11.1352 113.874 9.91524C113.644 10.2352 113.319 10.4852 112.899 10.6652C112.489 10.8452 112.044 10.9352 111.564 10.9352C110.924 10.9352 110.344 10.8052 109.824 10.5452C109.314 10.2752 108.909 9.88024 108.609 9.36024C108.309 8.83024 108.159 8.19024 108.159 7.44024C108.159 6.33024 108.489 5.45024 109.149 4.80024C109.809 4.14024 110.709 3.81024 111.849 3.81024C113.269 3.81024 114.269 4.26524 114.849 5.17524C115.439 6.08524 115.734 7.45524 115.734 9.28524C115.734 10.5852 115.619 11.6502 115.389 12.4802C115.169 13.3102 114.784 13.9402 114.234 14.3702C113.694 14.8002 112.954 15.0152 112.014 15.0152C111.274 15.0152 110.644 14.8752 110.124 14.5952C109.604 14.3052 109.204 13.9302 108.924 13.4702C108.654 13.0002 108.499 12.4852 108.459 11.9252H110.409ZM111.999 9.22524C112.519 9.22524 112.929 9.06524 113.229 8.74524C113.529 8.42524 113.679 7.99524 113.679 7.45524C113.679 6.86524 113.519 6.41024 113.199 6.09024C112.889 5.76024 112.464 5.59524 111.924 5.59524C111.384 5.59524 110.954 5.76524 110.634 6.10524C110.324 6.43524 110.169 6.87524 110.169 7.42524C110.169 7.95524 110.319 8.39024 110.619 8.73024C110.929 9.06024 111.389 9.22524 111.999 9.22524ZM118.538 15.1052C118.158 15.1052 117.843 14.9902 117.593 14.7602C117.353 14.5202 117.233 14.2252 117.233 13.8752C117.233 13.5252 117.353 13.2352 117.593 13.0052C117.843 12.7652 118.158 12.6452 118.538 12.6452C118.908 12.6452 119.213 12.7652 119.453 13.0052C119.693 13.2352 119.813 13.5252 119.813 13.8752C119.813 14.2252 119.693 14.5202 119.453 14.7602C119.213 14.9902 118.908 15.1052 118.538 15.1052ZM118.538 8.89524C118.158 8.89524 117.843 8.78024 117.593 8.55024C117.353 8.31024 117.233 8.01524 117.233 7.66524C117.233 7.31524 117.353 7.02524 117.593 6.79524C117.843 6.55524 118.158 6.43524 118.538 6.43524C118.908 6.43524 119.213 6.55524 119.453 6.79524C119.693 7.02524 119.813 7.31524 119.813 7.66524C119.813 8.01524 119.693 8.31024 119.453 8.55024C119.213 8.78024 118.908 8.89524 118.538 8.89524ZM121.309 9.39024C121.309 7.66024 121.619 6.30524 122.239 5.32524C122.869 4.34524 123.909 3.85524 125.359 3.85524C126.809 3.85524 127.844 4.34524 128.464 5.32524C129.094 6.30524 129.409 7.66024 129.409 9.39024C129.409 11.1302 129.094 12.4952 128.464 13.4852C127.844 14.4752 126.809 14.9702 125.359 14.9702C123.909 14.9702 122.869 14.4752 122.239 13.4852C121.619 12.4952 121.309 11.1302 121.309 9.39024ZM127.339 9.39024C127.339 8.65024 127.289 8.03024 127.189 7.53024C127.099 7.02024 126.909 6.60524 126.619 6.28524C126.339 5.96524 125.919 5.80524 125.359 5.80524C124.799 5.80524 124.374 5.96524 124.084 6.28524C123.804 6.60524 123.614 7.02024 123.514 7.53024C123.424 8.03024 123.379 8.65024 123.379 9.39024C123.379 10.1502 123.424 10.7902 123.514 11.3102C123.604 11.8202 123.794 12.2352 124.084 12.5552C124.374 12.8652 124.799 13.0202 125.359 13.0202C125.919 13.0202 126.344 12.8652 126.634 12.5552C126.924 12.2352 127.114 11.8202 127.204 11.3102C127.294 10.7902 127.339 10.1502 127.339 9.39024ZM131.006 9.39024C131.006 7.66024 131.316 6.30524 131.936 5.32524C132.566 4.34524 133.606 3.85524 135.056 3.85524C136.506 3.85524 137.541 4.34524 138.161 5.32524C138.791 6.30524 139.106 7.66024 139.106 9.39024C139.106 11.1302 138.791 12.4952 138.161 13.4852C137.541 14.4752 136.506 14.9702 135.056 14.9702C133.606 14.9702 132.566 14.4752 131.936 13.4852C131.316 12.4952 131.006 11.1302 131.006 9.39024ZM137.036 9.39024C137.036 8.65024 136.986 8.03024 136.886 7.53024C136.796 7.02024 136.606 6.60524 136.316 6.28524C136.036 5.96524 135.616 5.80524 135.056 5.80524C134.496 5.80524 134.071 5.96524 133.781 6.28524C133.501 6.60524 133.311 7.02024 133.211 7.53024C133.121 8.03024 133.076 8.65024 133.076 9.39024C133.076 10.1502 133.121 10.7902 133.211 11.3102C133.301 11.8202 133.491 12.2352 133.781 12.5552C134.071 12.8652 134.496 13.0202 135.056 13.0202C135.616 13.0202 136.041 12.8652 136.331 12.5552C136.621 12.2352 136.811 11.8202 136.901 11.3102C136.991 10.7902 137.036 10.1502 137.036 9.39024ZM147.333 8.76024V10.5302H140.973V8.76024H147.333ZM149.193 6.00024V4.06524H152.808V15.0002H150.648V6.00024H149.193ZM156.713 9.21024C155.713 8.69024 155.213 7.88524 155.213 6.79524C155.213 6.25524 155.348 5.76524 155.618 5.32524C155.898 4.87524 156.313 4.52024 156.863 4.26024C157.423 3.99024 158.103 3.85524 158.903 3.85524C159.703 3.85524 160.378 3.99024 160.928 4.26024C161.488 4.52024 161.903 4.87524 162.173 5.32524C162.453 5.76524 162.593 6.25524 162.593 6.79524C162.593 7.34524 162.458 7.83024 162.188 8.25024C161.918 8.66024 161.558 8.98024 161.108 9.21024C161.658 9.45024 162.088 9.80024 162.398 10.2602C162.708 10.7202 162.863 11.2652 162.863 11.8952C162.863 12.5752 162.688 13.1702 162.338 13.6802C161.998 14.1802 161.528 14.5652 160.928 14.8352C160.328 15.1052 159.653 15.2402 158.903 15.2402C158.153 15.2402 157.478 15.1052 156.878 14.8352C156.288 14.5652 155.818 14.1802 155.468 13.6802C155.128 13.1702 154.958 12.5752 154.958 11.8952C154.958 11.2652 155.113 10.7202 155.423 10.2602C155.733 9.79024 156.163 9.44024 156.713 9.21024ZM160.553 7.09524C160.553 6.60524 160.403 6.22524 160.103 5.95524C159.813 5.68524 159.413 5.55024 158.903 5.55024C158.403 5.55024 158.003 5.68524 157.703 5.95524C157.413 6.22524 157.268 6.61024 157.268 7.11024C157.268 7.56024 157.418 7.92024 157.718 8.19024C158.028 8.46024 158.423 8.59524 158.903 8.59524C159.383 8.59524 159.778 8.46024 160.088 8.19024C160.398 7.91024 160.553 7.54524 160.553 7.09524ZM158.903 10.1252C158.333 10.1252 157.868 10.2702 157.508 10.5602C157.158 10.8502 156.983 11.2652 156.983 11.8052C156.983 12.3052 157.153 12.7152 157.493 13.0352C157.843 13.3452 158.313 13.5002 158.903 13.5002C159.493 13.5002 159.958 13.3402 160.298 13.0202C160.638 12.7002 160.808 12.2952 160.808 11.8052C160.808 11.2752 160.633 10.8652 160.283 10.5752C159.933 10.2752 159.473 10.1252 158.903 10.1252ZM165.692 15.1052C165.312 15.1052 164.997 14.9902 164.747 14.7602C164.507 14.5202 164.387 14.2252 164.387 13.8752C164.387 13.5252 164.507 13.2352 164.747 13.0052C164.997 12.7652 165.312 12.6452 165.692 12.6452C166.062 12.6452 166.367 12.7652 166.607 13.0052C166.847 13.2352 166.967 13.5252 166.967 13.8752C166.967 14.2252 166.847 14.5202 166.607 14.7602C166.367 14.9902 166.062 15.1052 165.692 15.1052ZM165.692 8.89524C165.312 8.89524 164.997 8.78024 164.747 8.55024C164.507 8.31024 164.387 8.01524 164.387 7.66524C164.387 7.31524 164.507 7.02524 164.747 6.79524C164.997 6.55524 165.312 6.43524 165.692 6.43524C166.062 6.43524 166.367 6.55524 166.607 6.79524C166.847 7.02524 166.967 7.31524 166.967 7.66524C166.967 8.01524 166.847 8.31024 166.607 8.55024C166.367 8.78024 166.062 8.89524 165.692 8.89524ZM168.462 9.39024C168.462 7.66024 168.772 6.30524 169.392 5.32524C170.022 4.34524 171.062 3.85524 172.512 3.85524C173.962 3.85524 174.997 4.34524 175.617 5.32524C176.247 6.30524 176.562 7.66024 176.562 9.39024C176.562 11.1302 176.247 12.4952 175.617 13.4852C174.997 14.4752 173.962 14.9702 172.512 14.9702C171.062 14.9702 170.022 14.4752 169.392 13.4852C168.772 12.4952 168.462 11.1302 168.462 9.39024ZM174.492 9.39024C174.492 8.65024 174.442 8.03024 174.342 7.53024C174.252 7.02024 174.062 6.60524 173.772 6.28524C173.492 5.96524 173.072 5.80524 172.512 5.80524C171.952 5.80524 171.527 5.96524 171.237 6.28524C170.957 6.60524 170.767 7.02024 170.667 7.53024C170.577 8.03024 170.532 8.65024 170.532 9.39024C170.532 10.1502 170.577 10.7902 170.667 11.3102C170.757 11.8202 170.947 12.2352 171.237 12.5552C171.527 12.8652 171.952 13.0202 172.512 13.0202C173.072 13.0202 173.497 12.8652 173.787 12.5552C174.077 12.2352 174.267 11.8202 174.357 11.3102C174.447 10.7902 174.492 10.1502 174.492 9.39024ZM178.159 9.39024C178.159 7.66024 178.469 6.30524 179.089 5.32524C179.719 4.34524 180.759 3.85524 182.209 3.85524C183.659 3.85524 184.694 4.34524 185.314 5.32524C185.944 6.30524 186.259 7.66024 186.259 9.39024C186.259 11.1302 185.944 12.4952 185.314 13.4852C184.694 14.4752 183.659 14.9702 182.209 14.9702C180.759 14.9702 179.719 14.4752 179.089 13.4852C178.469 12.4952 178.159 11.1302 178.159 9.39024ZM184.189 9.39024C184.189 8.65024 184.139 8.03024 184.039 7.53024C183.949 7.02024 183.759 6.60524 183.469 6.28524C183.189 5.96524 182.769 5.80524 182.209 5.80524C181.649 5.80524 181.224 5.96524 180.934 6.28524C180.654 6.60524 180.464 7.02024 180.364 7.53024C180.274 8.03024 180.229 8.65024 180.229 9.39024C180.229 10.1502 180.274 10.7902 180.364 11.3102C180.454 11.8202 180.644 12.2352 180.934 12.5552C181.224 12.8652 181.649 13.0202 182.209 13.0202C182.769 13.0202 183.194 12.8652 183.484 12.5552C183.774 12.2352 183.964 11.8202 184.054 11.3102C184.144 10.7902 184.189 10.1502 184.189 9.39024ZM38.665 37.9552C37.695 37.0152 36.94 35.8152 36.4 34.3552C35.87 32.8952 35.605 31.3302 35.605 29.6602C35.605 27.9502 35.885 26.3452 36.445 24.8452C37.005 23.3352 37.82 22.1002 38.89 21.1402H41.005V21.3352C39.905 22.3852 39.065 23.6452 38.485 25.1152C37.915 26.5852 37.63 28.1002 37.63 29.6602C37.63 31.1802 37.9 32.6502 38.44 34.0702C38.99 35.4802 39.77 36.7052 40.78 37.7452V37.9552H38.665ZM50.0403 30.6652C50.0403 30.9652 50.0203 31.2352 49.9803 31.4752H43.9053C43.9553 32.0752 44.1653 32.5452 44.5353 32.8852C44.9053 33.2252 45.3603 33.3952 45.9003 33.3952C46.6803 33.3952 47.2353 33.0602 47.5653 32.3902H49.8303C49.5903 33.1902 49.1303 33.8502 48.4503 34.3702C47.7703 34.8802 46.9353 35.1352 45.9453 35.1352C45.1453 35.1352 44.4253 34.9602 43.7853 34.6102C43.1553 34.2502 42.6603 33.7452 42.3003 33.0952C41.9503 32.4452 41.7753 31.6952 41.7753 30.8452C41.7753 29.9852 41.9503 29.2302 42.3003 28.5802C42.6503 27.9302 43.1403 27.4302 43.7703 27.0802C44.4003 26.7302 45.1253 26.5552 45.9453 26.5552C46.7353 26.5552 47.4403 26.7252 48.0603 27.0652C48.6903 27.4052 49.1753 27.8902 49.5153 28.5202C49.8653 29.1402 50.0403 29.8552 50.0403 30.6652ZM47.8653 30.0652C47.8553 29.5252 47.6603 29.0952 47.2803 28.7752C46.9003 28.4452 46.4353 28.2802 45.8853 28.2802C45.3653 28.2802 44.9253 28.4402 44.5653 28.7602C44.2153 29.0702 44.0003 29.5052 43.9203 30.0652H47.8653ZM56.1631 35.0002L54.4531 32.4202L52.9381 35.0002H50.6881L53.4031 30.8302L50.6581 26.6902H53.0281L54.7231 29.2552L56.2531 26.6902H58.5031L55.7731 30.8302L58.5331 35.0002H56.1631ZM59.1337 30.8452C59.1337 29.9852 59.3087 29.2352 59.6587 28.5952C60.0087 27.9452 60.4937 27.4452 61.1137 27.0952C61.7337 26.7352 62.4437 26.5552 63.2437 26.5552C64.2737 26.5552 65.1237 26.8152 65.7937 27.3352C66.4737 27.8452 66.9287 28.5652 67.1587 29.4952H64.8937C64.7737 29.1352 64.5687 28.8552 64.2787 28.6552C63.9987 28.4452 63.6487 28.3402 63.2287 28.3402C62.6287 28.3402 62.1537 28.5602 61.8037 29.0002C61.4537 29.4302 61.2787 30.0452 61.2787 30.8452C61.2787 31.6352 61.4537 32.2502 61.8037 32.6902C62.1537 33.1202 62.6287 33.3352 63.2287 33.3352C64.0787 33.3352 64.6337 32.9552 64.8937 32.1952H67.1587C66.9287 33.0952 66.4737 33.8102 65.7937 34.3402C65.1137 34.8702 64.2637 35.1352 63.2437 35.1352C62.4437 35.1352 61.7337 34.9602 61.1137 34.6102C60.4937 34.2502 60.0087 33.7502 59.6587 33.1102C59.3087 32.4602 59.1337 31.7052 59.1337 30.8452ZM76.4221 30.6652C76.4221 30.9652 76.4021 31.2352 76.3621 31.4752H70.2871C70.3371 32.0752 70.5471 32.5452 70.9171 32.8852C71.2871 33.2252 71.7421 33.3952 72.2821 33.3952C73.0621 33.3952 73.6171 33.0602 73.9471 32.3902H76.2121C75.9721 33.1902 75.5121 33.8502 74.8321 34.3702C74.1521 34.8802 73.3171 35.1352 72.3271 35.1352C71.5271 35.1352 70.8071 34.9602 70.1671 34.6102C69.5371 34.2502 69.0421 33.7452 68.6821 33.0952C68.3321 32.4452 68.1571 31.6952 68.1571 30.8452C68.1571 29.9852 68.3321 29.2302 68.6821 28.5802C69.0321 27.9302 69.5221 27.4302 70.1521 27.0802C70.7821 26.7302 71.5071 26.5552 72.3271 26.5552C73.1171 26.5552 73.8221 26.7252 74.4421 27.0652C75.0721 27.4052 75.5571 27.8902 75.8971 28.5202C76.2471 29.1402 76.4221 29.8552 76.4221 30.6652ZM74.2471 30.0652C74.2371 29.5252 74.0421 29.0952 73.6621 28.7752C73.2821 28.4452 72.8171 28.2802 72.2671 28.2802C71.7471 28.2802 71.3071 28.4402 70.9471 28.7602C70.5971 29.0702 70.3821 29.5052 70.3021 30.0652H74.2471ZM80.0549 27.8902C80.3249 27.5102 80.6949 27.1952 81.1649 26.9452C81.6449 26.6852 82.1899 26.5552 82.7999 26.5552C83.5099 26.5552 84.1499 26.7302 84.7199 27.0802C85.2999 27.4302 85.7549 27.9302 86.0849 28.5802C86.4249 29.2202 86.5949 29.9652 86.5949 30.8152C86.5949 31.6652 86.4249 32.4202 86.0849 33.0802C85.7549 33.7302 85.2999 34.2352 84.7199 34.5952C84.1499 34.9552 83.5099 35.1352 82.7999 35.1352C82.1899 35.1352 81.6499 35.0102 81.1799 34.7602C80.7199 34.5102 80.3449 34.1952 80.0549 33.8152V38.9602H77.9549V26.6902H80.0549V27.8902ZM84.4499 30.8152C84.4499 30.3152 84.3449 29.8852 84.1349 29.5252C83.9349 29.1552 83.6649 28.8752 83.3249 28.6852C82.9949 28.4952 82.6349 28.4002 82.2449 28.4002C81.8649 28.4002 81.5049 28.5002 81.1649 28.7002C80.8349 28.8902 80.5649 29.1702 80.3549 29.5402C80.1549 29.9102 80.0549 30.3452 80.0549 30.8452C80.0549 31.3452 80.1549 31.7802 80.3549 32.1502C80.5649 32.5202 80.8349 32.8052 81.1649 33.0052C81.5049 33.1952 81.8649 33.2902 82.2449 33.2902C82.6349 33.2902 82.9949 33.1902 83.3249 32.9902C83.6649 32.7902 83.9349 32.5052 84.1349 32.1352C84.3449 31.7652 84.4499 31.3252 84.4499 30.8152ZM90.5659 28.4152V32.4352C90.5659 32.7152 90.6309 32.9202 90.7609 33.0502C90.9009 33.1702 91.1309 33.2302 91.4509 33.2302H92.4259V35.0002H91.1059C89.3359 35.0002 88.4509 34.1402 88.4509 32.4202V28.4152H87.4609V26.6902H88.4509V24.6352H90.5659V26.6902H92.4259V28.4152H90.5659ZM99.6106 27.8902C99.8806 27.5102 100.251 27.1952 100.721 26.9452C101.201 26.6852 101.746 26.5552 102.356 26.5552C103.066 26.5552 103.706 26.7302 104.276 27.0802C104.856 27.4302 105.311 27.9302 105.641 28.5802C105.981 29.2202 106.151 29.9652 106.151 30.8152C106.151 31.6652 105.981 32.4202 105.641 33.0802C105.311 33.7302 104.856 34.2352 104.276 34.5952C103.706 34.9552 103.066 35.1352 102.356 35.1352C101.746 35.1352 101.206 35.0102 100.736 34.7602C100.276 34.5102 99.9006 34.1952 99.6106 33.8152V38.9602H97.5106V26.6902H99.6106V27.8902ZM104.006 30.8152C104.006 30.3152 103.901 29.8852 103.691 29.5252C103.491 29.1552 103.221 28.8752 102.881 28.6852C102.551 28.4952 102.191 28.4002 101.801 28.4002C101.421 28.4002 101.061 28.5002 100.721 28.7002C100.391 28.8902 100.121 29.1702 99.9106 29.5402C99.7106 29.9102 99.6106 30.3452 99.6106 30.8452C99.6106 31.3452 99.7106 31.7802 99.9106 32.1502C100.121 32.5202 100.391 32.8052 100.721 33.0052C101.061 33.1952 101.421 33.2902 101.801 33.2902C102.191 33.2902 102.551 33.1902 102.881 32.9902C103.221 32.7902 103.491 32.5052 103.691 32.1352C103.901 31.7652 104.006 31.3252 104.006 30.8152ZM115.522 26.6902V35.0002H113.407V33.9502C113.137 34.3102 112.782 34.5952 112.342 34.8052C111.912 35.0052 111.442 35.1052 110.932 35.1052C110.282 35.1052 109.707 34.9702 109.207 34.7002C108.707 34.4202 108.312 34.0152 108.022 33.4852C107.742 32.9452 107.602 32.3052 107.602 31.5652V26.6902H109.702V31.2652C109.702 31.9252 109.867 32.4352 110.197 32.7952C110.527 33.1452 110.977 33.3202 111.547 33.3202C112.127 33.3202 112.582 33.1452 112.912 32.7952C113.242 32.4352 113.407 31.9252 113.407 31.2652V26.6902H115.522ZM119.694 27.9052C119.964 27.5052 120.334 27.1802 120.804 26.9302C121.284 26.6802 121.829 26.5552 122.439 26.5552C123.149 26.5552 123.789 26.7302 124.359 27.0802C124.939 27.4302 125.394 27.9302 125.724 28.5802C126.064 29.2202 126.234 29.9652 126.234 30.8152C126.234 31.6652 126.064 32.4202 125.724 33.0802C125.394 33.7302 124.939 34.2352 124.359 34.5952C123.789 34.9552 123.149 35.1352 122.439 35.1352C121.819 35.1352 121.274 35.0152 120.804 34.7752C120.344 34.5252 119.974 34.2052 119.694 33.8152V35.0002H117.594V23.9002H119.694V27.9052ZM124.089 30.8152C124.089 30.3152 123.984 29.8852 123.774 29.5252C123.574 29.1552 123.304 28.8752 122.964 28.6852C122.634 28.4952 122.274 28.4002 121.884 28.4002C121.504 28.4002 121.144 28.5002 120.804 28.7002C120.474 28.8902 120.204 29.1702 119.994 29.5402C119.794 29.9102 119.694 30.3452 119.694 30.8452C119.694 31.3452 119.794 31.7802 119.994 32.1502C120.204 32.5202 120.474 32.8052 120.804 33.0052C121.144 33.1952 121.504 33.2902 121.884 33.2902C122.274 33.2902 122.634 33.1902 122.964 32.9902C123.304 32.7902 123.574 32.5052 123.774 32.1352C123.984 31.7652 124.089 31.3252 124.089 30.8152ZM129.86 23.9002V35.0002H127.76V23.9002H129.86ZM132.999 25.7002C132.629 25.7002 132.319 25.5852 132.069 25.3552C131.829 25.1152 131.709 24.8202 131.709 24.4702C131.709 24.1202 131.829 23.8302 132.069 23.6002C132.319 23.3602 132.629 23.2402 132.999 23.2402C133.369 23.2402 133.674 23.3602 133.914 23.6002C134.164 23.8302 134.289 24.1202 134.289 24.4702C134.289 24.8202 134.164 25.1152 133.914 25.3552C133.674 25.5852 133.369 25.7002 132.999 25.7002ZM134.034 26.6902V35.0002H131.934V26.6902H134.034ZM135.569 30.8452C135.569 29.9852 135.744 29.2352 136.094 28.5952C136.444 27.9452 136.929 27.4452 137.549 27.0952C138.169 26.7352 138.879 26.5552 139.679 26.5552C140.709 26.5552 141.559 26.8152 142.229 27.3352C142.909 27.8452 143.364 28.5652 143.594 29.4952H141.329C141.209 29.1352 141.004 28.8552 140.714 28.6552C140.434 28.4452 140.084 28.3402 139.664 28.3402C139.064 28.3402 138.589 28.5602 138.239 29.0002C137.889 29.4302 137.714 30.0452 137.714 30.8452C137.714 31.6352 137.889 32.2502 138.239 32.6902C138.589 33.1202 139.064 33.3352 139.664 33.3352C140.514 33.3352 141.069 32.9552 141.329 32.1952H143.594C143.364 33.0952 142.909 33.8102 142.229 34.3402C141.549 34.8702 140.699 35.1352 139.679 35.1352C138.879 35.1352 138.169 34.9602 137.549 34.6102C136.929 34.2502 136.444 33.7502 136.094 33.1102C135.744 32.4602 135.569 31.7052 135.569 30.8452ZM153.387 26.5702C154.017 26.5702 154.577 26.7102 155.067 26.9902C155.557 27.2602 155.937 27.6652 156.207 28.2052C156.487 28.7352 156.627 29.3752 156.627 30.1252V35.0002H154.527V30.4102C154.527 29.7502 154.362 29.2452 154.032 28.8952C153.702 28.5352 153.252 28.3552 152.682 28.3552C152.102 28.3552 151.642 28.5352 151.302 28.8952C150.972 29.2452 150.807 29.7502 150.807 30.4102V35.0002H148.707V23.9002H150.807V27.7252C151.077 27.3652 151.437 27.0852 151.887 26.8852C152.337 26.6752 152.837 26.5702 153.387 26.5702ZM162.314 35.1352C161.514 35.1352 160.794 34.9602 160.154 34.6102C159.514 34.2502 159.009 33.7452 158.639 33.0952C158.279 32.4452 158.099 31.6952 158.099 30.8452C158.099 29.9952 158.284 29.2452 158.654 28.5952C159.034 27.9452 159.549 27.4452 160.199 27.0952C160.849 26.7352 161.574 26.5552 162.374 26.5552C163.174 26.5552 163.899 26.7352 164.549 27.0952C165.199 27.4452 165.709 27.9452 166.079 28.5952C166.459 29.2452 166.649 29.9952 166.649 30.8452C166.649 31.6952 166.454 32.4452 166.064 33.0952C165.684 33.7452 165.164 34.2502 164.504 34.6102C163.854 34.9602 163.124 35.1352 162.314 35.1352ZM162.314 33.3052C162.694 33.3052 163.049 33.2152 163.379 33.0352C163.719 32.8452 163.989 32.5652 164.189 32.1952C164.389 31.8252 164.489 31.3752 164.489 30.8452C164.489 30.0552 164.279 29.4502 163.859 29.0302C163.449 28.6002 162.944 28.3852 162.344 28.3852C161.744 28.3852 161.239 28.6002 160.829 29.0302C160.429 29.4502 160.229 30.0552 160.229 30.8452C160.229 31.6352 160.424 32.2452 160.814 32.6752C161.214 33.0952 161.714 33.3052 162.314 33.3052ZM170.289 23.9002V35.0002H168.189V23.9002H170.289ZM173.429 25.7002C173.059 25.7002 172.749 25.5852 172.499 25.3552C172.259 25.1152 172.139 24.8202 172.139 24.4702C172.139 24.1202 172.259 23.8302 172.499 23.6002C172.749 23.3602 173.059 23.2402 173.429 23.2402C173.799 23.2402 174.104 23.3602 174.344 23.6002C174.594 23.8302 174.719 24.1202 174.719 24.4702C174.719 24.8202 174.594 25.1152 174.344 25.3552C174.104 25.5852 173.799 25.7002 173.429 25.7002ZM174.464 26.6902V35.0002H172.364V26.6902H174.464ZM175.999 30.8152C175.999 29.9752 176.164 29.2302 176.494 28.5802C176.834 27.9302 177.294 27.4302 177.874 27.0802C178.454 26.7302 179.099 26.5552 179.809 26.5552C180.349 26.5552 180.864 26.6752 181.354 26.9152C181.844 27.1452 182.234 27.4552 182.524 27.8452V23.9002H184.654V35.0002H182.524V33.7702C182.264 34.1802 181.899 34.5102 181.429 34.7602C180.959 35.0102 180.414 35.1352 179.794 35.1352C179.094 35.1352 178.454 34.9552 177.874 34.5952C177.294 34.2352 176.834 33.7302 176.494 33.0802C176.164 32.4202 175.999 31.6652 175.999 30.8152ZM182.539 30.8452C182.539 30.3352 182.439 29.9002 182.239 29.5402C182.039 29.1702 181.769 28.8902 181.429 28.7002C181.089 28.5002 180.724 28.4002 180.334 28.4002C179.944 28.4002 179.584 28.4952 179.254 28.6852C178.924 28.8752 178.654 29.1552 178.444 29.5252C178.244 29.8852 178.144 30.3152 178.144 30.8152C178.144 31.3152 178.244 31.7552 178.444 32.1352C178.654 32.5052 178.924 32.7902 179.254 32.9902C179.594 33.1902 179.954 33.2902 180.334 33.2902C180.724 33.2902 181.089 33.1952 181.429 33.0052C181.769 32.8052 182.039 32.5252 182.239 32.1652C182.439 31.7952 182.539 31.3552 182.539 30.8452ZM186.165 30.8152C186.165 29.9752 186.33 29.2302 186.66 28.5802C187 27.9302 187.455 27.4302 188.025 27.0802C188.605 26.7302 189.25 26.5552 189.96 26.5552C190.58 26.5552 191.12 26.6802 191.58 26.9302C192.05 27.1802 192.425 27.4952 192.705 27.8752V26.6902H194.82V35.0002H192.705V33.7852C192.435 34.1752 192.06 34.5002 191.58 34.7602C191.11 35.0102 190.565 35.1352 189.945 35.1352C189.245 35.1352 188.605 34.9552 188.025 34.5952C187.455 34.2352 187 33.7302 186.66 33.0802C186.33 32.4202 186.165 31.6652 186.165 30.8152ZM192.705 30.8452C192.705 30.3352 192.605 29.9002 192.405 29.5402C192.205 29.1702 191.935 28.8902 191.595 28.7002C191.255 28.5002 190.89 28.4002 190.5 28.4002C190.11 28.4002 189.75 28.4952 189.42 28.6852C189.09 28.8752 188.82 29.1552 188.61 29.5252C188.41 29.8852 188.31 30.3152 188.31 30.8152C188.31 31.3152 188.41 31.7552 188.61 32.1352C188.82 32.5052 189.09 32.7902 189.42 32.9902C189.76 33.1902 190.12 33.2902 190.5 33.2902C190.89 33.2902 191.255 33.1952 191.595 33.0052C191.935 32.8052 192.205 32.5252 192.405 32.1652C192.605 31.7952 192.705 31.3552 192.705 30.8452ZM204.821 26.6902L199.676 38.9302H197.441L199.241 34.7902L195.911 26.6902H198.266L200.411 32.4952L202.586 26.6902H204.821ZM209.133 35.1352C208.453 35.1352 207.843 35.0152 207.303 34.7752C206.763 34.5252 206.333 34.1902 206.013 33.7702C205.703 33.3502 205.533 32.8852 205.503 32.3752H207.618C207.658 32.6952 207.813 32.9602 208.083 33.1702C208.363 33.3802 208.708 33.4852 209.118 33.4852C209.518 33.4852 209.828 33.4052 210.048 33.2452C210.278 33.0852 210.393 32.8802 210.393 32.6302C210.393 32.3602 210.253 32.1602 209.973 32.0302C209.703 31.8902 209.268 31.7402 208.668 31.5802C208.048 31.4302 207.538 31.2752 207.138 31.1152C206.748 30.9552 206.408 30.7102 206.118 30.3802C205.838 30.0502 205.698 29.6052 205.698 29.0452C205.698 28.5852 205.828 28.1652 206.088 27.7852C206.358 27.4052 206.738 27.1052 207.228 26.8852C207.728 26.6652 208.313 26.5552 208.983 26.5552C209.973 26.5552 210.763 26.8052 211.353 27.3052C211.943 27.7952 212.268 28.4602 212.328 29.3002H210.318C210.288 28.9702 210.148 28.7102 209.898 28.5202C209.658 28.3202 209.333 28.2202 208.923 28.2202C208.543 28.2202 208.248 28.2902 208.038 28.4302C207.838 28.5702 207.738 28.7652 207.738 29.0152C207.738 29.2952 207.878 29.5102 208.158 29.6602C208.438 29.8002 208.873 29.9452 209.463 30.0952C210.063 30.2452 210.558 30.4002 210.948 30.5602C211.338 30.7202 211.673 30.9702 211.953 31.3102C212.243 31.6402 212.393 32.0802 212.403 32.6302C212.403 33.1102 212.268 33.5402 211.998 33.9202C211.738 34.3002 211.358 34.6002 210.858 34.8202C210.368 35.0302 209.793 35.1352 209.133 35.1352Z" fill="white"/>
<path d="M10 0.000244141C4.486 0.000244141 0 4.48624 0 10.0002C0 15.5142 4.486 20.0002 10 20.0002C15.514 20.0002 20 15.5142 20 10.0002C20 4.48624 15.514 0.000244141 10 0.000244141ZM13.293 14.7072L9 10.4142V4.00024H11V9.58624L14.707 13.2932L13.293 14.7072Z" fill="white"/>
</svg>
